<?xml version="1.0" standalone="no"?>
<!DOCTYPE svg PUBLIC "-//W3C//DTD SVG 1.1//EN" "http://www.w3.org/Graphics/SVG/1.1/DTD/svg11.dtd" >
<svg>
<metadata>
Created by FontForge 20110222 at Wed Jul  4 22:04:19 2012
 By www-data
Mayonaise is a trademark of Marina Nunes
</metadata>
<defs>
<font id="Mayonaise-Condensed" horiz-adv-x="1000" >
  <font-face 
    font-family="Mayonaise Cond"
    font-weight="400"
    font-stretch="condensed"
    units-per-em="1000"
    panose-1="0 0 0 0 0 0 0 0 0 0"
    ascent="800"
    descent="-200"
    cap-height="800"
    bbox="-22 -248 542 949.75"
    underline-thickness="50"
    underline-position="-50"
    stemh="12"
    stemv="12"
    unicode-range="U+0020-2020"
  />
    <missing-glyph />
    <glyph glyph-name="space" unicode=" " horiz-adv-x="237" 
 />
    <glyph glyph-name="quoteright" unicode="&#x2019;" horiz-adv-x="63" 
 />
    <glyph glyph-name="period" unicode="." 
 />
    <glyph glyph-name="zero" unicode="0" horiz-adv-x="462" 
d="M336 674c58 -55 87 -150 87 -284v-237v-40v-7c0 -34 -5 -305 -188 -306h-4v0h-1h-1c-31 0 -60 8 -85 23c-8 5 -17 12 -25 19c-8 8 -16 16 -23 27v0c-7 11 -14 20 -19 31c-5 10 -10 21 -14 32s-8 23 -12 36v0c-3 11 -5 23 -8 35v0l-6 42c-2 19 -3 35 -3 45v0
c-1 11 -1 18 -1 18v27v47v46v45v47v45v23v20c1 16 1 33 3 49c2 20 5 40 8 59v0c4 21 9 41 16 59v0c28 84 77 131 144 141c9 2 18 2 27 2c3 0 55 3 105 -44zM75 -68c3 -6 6 -13 9 -19l41 40c-2 8 -3 16 -4 24l-24 -24zM46 423l75 74c1 11 3 23 4 34l-77 -77
c-1 -11 -2 -21 -2 -31zM112 75v30l-63 -61c1 -10 3 -19 4 -28zM113 154l-28 -27l-39 -39c0 -8 1 -18 2 -29l64 63zM113 200l-22 -22l-46 -45v-25v-4l68 67v29zM115 293l-70 -68v-29l69 68zM45 270v-28l70 68v29l-11 -10zM45 362v-28l71 70c0 10 0 19 1 28zM45 318v-31l14 14
l56 55l1 31zM45 179v-29l4 4l64 63l1 30zM56 2c1 -7 3 -14 4 -21l55 53c-1 9 -1 17 -2 25zM116 19l-52 -52c2 -7 4 -15 7 -23l48 48zM117 450c1 10 2 19 2 28l-74 -72v-17v-10zM128 551c3 15 6 28 10 41l-61 -59l-21 -21c-3 -13 -5 -26 -7 -39zM145 616c7 19 14 35 21 48
l-96 -95c-4 -11 -7 -23 -10 -36zM187 700c-47 -13 -82 -48 -107 -104zM128 -61l-39 -37c4 -7 8 -14 12 -20l33 32c-3 8 -5 16 -6 25zM108 -128c5 -6 10 -12 15 -17l22 22c-2 7 -5 15 -8 24zM150 -135l-18 -18c5 -4 10 -8 15 -11l7 7l5 5c-3 5 -6 11 -9 17zM157 -171
c8 -4 16 -8 25 -10c-6 5 -11 11 -16 19l-6 -6zM411 111v279c0 130 -28 223 -83 275c-46 43 -95 41 -96 41c-3 0 -46 -6 -76 -95c-7 -19 -12 -40 -16 -64v0c-3 -17 -6 -35 -8 -54v0c-1 -14 -2 -30 -3 -46v0v0c0 -15 -1 -30 -1 -46v-13l-1 -34v0v-46l-1 -47l-1 -47v-46l-1 -48
v-9v-38c1 -14 3 -27 3 -40v0v0c1 -15 2 -29 4 -43v0v0c2 -13 4 -26 6 -38c3 -13 5 -26 9 -38v0c4 -13 7 -26 12 -36v0c4 -11 9 -20 14 -28c16 -25 35 -38 57 -38h1h1h4c171 0 176 259 176 294v4v1z" />
    <glyph glyph-name="one" unicode="1" horiz-adv-x="370" 
d="M303 706v-1v0v-46v-45v-48v-46v-45v-45v-46v-45v-48v-46v-45v-48v-46v-45v-48v-47v-44v-45v-47v-24c0 -3 -2 -6 -6 -6h-26h-51h-2c-3 0 -6 3 -6 6v43v45v46v48v45v46v48v45v46v48v45v46v45v45v46v48v45v46v47l-148 -324c-1 -3 -3 -4 -5 -4c-1 0 -2 0 -3 1c-3 1 -4 5 -3 8
l160 348v1c1 0 1 1 1 1c1 0 1 0 1 1h1c1 0 1 0 2 1v0v0h1h28h50c4 0 6 -3 6 -6zM291 -167v30l-55 -51h32zM224 646l24 22l35 32h-34l-24 -22l-1 -1v-31zM291 -120v28l-58 -53l-9 -9v-28l67 61v1zM291 -76v29l-56 -53l-11 -9v-29l58 54zM291 -31v30l-56 -52l-11 -10v-30
l57 52zM291 15v32l-56 -52l-11 -10v-32l57 53zM291 63v29l-56 -52l-11 -10v-28l57 52zM291 108v30l-56 -52l-11 -10v-30l57 53zM291 155v31l-56 -52l-11 -9v-32l57 52zM291 203v28l-58 -53l-9 -9v-28l57 52zM291 247v31l-56 -53l-11 -9v-31l58 54zM291 294v32l-58 -54l-9 -8
v-32l57 52zM291 342v28l-56 -52l-11 -10v-28l58 53zM291 386v31l-58 -54l-9 -8v-31l57 53zM291 433v29l-56 -53l-11 -9v-29l58 53zM291 478v28l-58 -53l-9 -9v-28l57 52zM291 522v31l-56 -53l-11 -9v-31l58 54zM291 569v32l-58 -54l-9 -8v-32l57 52zM291 617v28l-56 -52
l-11 -10v-28l58 53zM291 692l-55 -51l-12 -11v-31l57 53l10 9v31zM232 700h-8v-7l5 4zM291 -188v5l-5 -5h5z" />
    <glyph glyph-name="two" unicode="2" horiz-adv-x="468" 
d="M420 549c1 -17 1 -33 0 -51v0v0c0 -4 -1 -8 -1 -13c-1 -7 -1 -12 -1 -13c0 -2 -2 -26 -18 -63c-15 -32 -34 -58 -56 -82c-27 -29 -62 -60 -111 -90c-14 -11 -28 -22 -42 -35v0c-16 -15 -30 -30 -43 -46c-3 -4 -6 -8 -8 -12c-49 -72 -77 -166 -88 -256h6h44h45h47h46h46
h47h45h34c3 0 6 -3 6 -6v-16v-51v-7v-1v-1c0 -3 -3 -6 -6 -6v0h-371c-3 0 -6 3 -6 6v3v0v0c7 96 22 206 68 296v1c1 1 4 12 13 32c18 38 53 96 118 157c26 25 48 54 65 87c15 31 23 60 26 78c3 17 4 27 4 28v28c-1 15 -1 30 -3 45v0v0c-1 15 -3 30 -6 44c-2 13 -5 26 -9 37
c-4 13 -9 24 -14 32c-7 11 -15 18 -23 22c-5 3 -11 4 -16 4v0c-165 -3 -167 -224 -167 -226c0 -3 -3 -6 -6 -6s-6 3 -6 6s2 238 182 238c45 0 82 -15 108 -44l1 -1l7 -7c8 -9 15 -19 21 -31v0c6 -10 10 -22 14 -34c4 -14 7 -30 8 -46zM300 320l-52 -57c2 2 5 4 8 6
c26 20 52 38 74 61c30 31 48 61 59 85zM319 655l13 14l7 7c-6 4 -13 8 -20 11l-10 -10c4 -7 7 -14 10 -22zM349 670l-26 -28c3 -7 5 -15 7 -24l34 37c0 1 -1 2 -2 3c-4 4 -9 8 -13 12zM371 645l-38 -41c1 -9 2 -19 4 -29l46 50c-3 7 -7 14 -11 21zM389 613l-51 -54
c1 -9 2 -19 2 -28l56 60c-2 8 -5 15 -7 22zM340 477l7 7l58 63c-2 10 -3 20 -6 31l-58 -64v-27c0 0 -1 -4 -1 -10zM336 456c-2 -12 -6 -29 -13 -48l68 74l16 17c0 9 0 20 -1 32l-35 -38zM307 691c-4 2 -8 3 -12 4c3 -3 5 -5 7 -8zM242 286c-38 -36 -66 -70 -85 -100
c12 14 25 28 40 40l189 204l13 13c3 12 6 25 7 38l-97 -105c-17 -34 -40 -64 -67 -90zM181 -124h-32l-57 -62h31zM406 -182v33l-34 -37h31l1 1zM76 -186l57 62h-29l-56 -62h28zM406 -132v8h-26l-57 -62h33zM307 -186l57 62h-29l-57 -62h29zM262 -186l57 62h-31l-10 -12
l-47 -50h31zM226 -174l46 50h-30l-57 -62h30zM169 -186l57 62h-29l-58 -62h30zM49 -167l39 43h-28l-9 -9z" />
    <glyph glyph-name="three" unicode="3" horiz-adv-x="490" 
d="M434 136c3 -22 4 -40 3 -49v-7c0 -14 -1 -30 -2 -44c-2 -24 -7 -46 -13 -67c-13 -45 -35 -77 -58 -102c-39 -42 -88 -67 -139 -67c-86 0 -178 72 -178 230c0 3 3 6 6 6s6 -3 6 -6c0 -147 83 -216 161 -218c1 0 5 0 10 1c22 4 76 25 101 127c5 18 9 37 11 59
c2 17 3 35 4 55v23v23c-1 16 -3 31 -5 46v0v0c-2 15 -5 29 -9 42c-4 12 -8 24 -13 34c-4 11 -10 22 -16 32v0v0c-7 9 -13 18 -21 26c-7 8 -15 16 -24 22v0c-9 7 -19 14 -29 19s-21 9 -32 13v0c-4 1 -7 1 -10 2c-8 1 -15 1 -20 2h-3v0h-6v0v0h-6v0h-6c-4 0 -6 3 -6 6s2 6 5 6
h13h1c19 0 35 3 50 7c35 12 57 36 69 76c6 16 9 35 11 57c1 15 2 30 2 47v4v2c-1 17 -2 34 -4 49c-2 13 -5 25 -9 37c-3 12 -8 23 -14 34s-13 20 -20 28c-9 9 -15 13 -15 13v0c-45 2 -79 -8 -104 -32c-47 -45 -43 -122 -43 -122c1 -4 -2 -6 -5 -7c-3 0 -6 3 -6 6
c-1 3 -5 82 46 131c29 29 71 40 124 35h4c5 -1 10 -1 15 -2c14 -3 27 -7 39 -13v0c11 -6 21 -13 30 -22c4 -4 8 -8 12 -13l2 -2c50 -64 38 -160 38 -164c-1 0 -3 -29 -22 -62c-19 -36 -49 -64 -92 -80c-13 -6 -28 -10 -43 -13c6 -1 11 -2 17 -4c13 -3 26 -7 38 -11
c11 -5 23 -10 33 -15v0c11 -6 21 -12 30 -19l5 -5c7 -5 13 -10 20 -16c35 -34 57 -78 65 -131c1 -2 1 -4 2 -7zM245 326c6 -4 11 -7 16 -11l4 4c-7 3 -13 5 -20 7zM277 665c3 -8 7 -15 10 -23l29 31c-6 5 -12 10 -19 13zM256 695c5 -6 10 -12 14 -20l16 17c-8 3 -17 6 -25 8
l-2 -1zM325 665l-34 -36l6 -24l41 44c-2 3 -4 6 -6 8c-2 3 -5 6 -7 8zM296 387c24 16 41 35 51 53c2 2 3 4 4 6zM303 541v-4c0 -11 -1 -21 -1 -31l64 69c-2 9 -4 19 -6 27zM344 639l-45 -48c2 -11 3 -22 3 -33l53 57c-3 9 -7 16 -11 24zM296 452l50 55l24 25v1v4
c0 0 0 9 -2 23l-67 -73c-2 -12 -3 -24 -5 -35zM364 259l-32 -35c3 -8 6 -15 8 -23l38 41c-4 6 -9 11 -14 17zM361 206l-17 -18c3 -9 5 -19 7 -28l47 50c-4 8 -8 15 -13 22zM353 145c2 -10 3 -20 4 -31l4 5l51 55c-2 9 -6 17 -9 24zM358 98v-21v-8l63 68c0 2 0 4 -1 6
c-1 6 -2 12 -4 18l-30 -32zM358 51c-1 -12 -2 -25 -3 -36l69 73v5c0 10 0 19 -1 28zM354 -5c-2 -13 -4 -25 -6 -37l73 78c1 11 2 23 2 34zM296 -167c20 9 40 23 59 42c2 2 3 4 5 6c14 17 26 37 35 58zM289 428c-9 -28 -23 -50 -43 -65c6 2 13 5 18 7l85 91l13 14
c3 12 5 25 7 38zM270 308c6 -5 11 -10 17 -15l12 13c-7 3 -15 6 -22 9zM310 300l-15 -16c4 -5 9 -11 13 -18l21 23c-6 4 -13 8 -19 11zM321 263l-6 -7c4 -6 8 -13 11 -21l30 32c-4 4 -8 8 -13 11c-1 2 -3 3 -4 4zM343 -65c-6 -23 -14 -42 -22 -58l28 30l57 61
c5 15 9 31 12 48z" />
    <glyph glyph-name="four" unicode="4" horiz-adv-x="540" 
d="M343 180h-305c-2 0 -4 1 -5 2c-1 2 -1 4 -1 5l135 421c1 4 5 5 8 4s5 -4 4 -7l-133 -414h297c3 0 6 -2 6 -5c0 -4 -3 -6 -6 -6zM529 180h-103c-3 0 -6 2 -6 6c0 3 3 5 6 5h103c3 0 6 -2 6 -5c0 -4 -3 -6 -6 -6zM421 88l-72 -76v-36l72 78v34zM343 -44h-2c-2 1 -4 3 -4 5
v53c0 1 1 3 2 4l83 89c2 2 4 3 7 2c2 -1 3 -3 3 -6v-52c0 -1 0 -3 -1 -4l-84 -90c-1 -1 -2 -1 -4 -1zM421 140l-72 -78v-33l72 77v34zM343 8h-2c-2 1 -4 3 -4 6v51c0 1 1 3 2 4l83 90c2 1 4 2 7 1c2 -1 3 -3 3 -5v-52c0 -1 0 -3 -1 -4l-84 -89c-1 -1 -2 -2 -4 -2zM421 239
l-72 -77v-33l72 77v33zM343 109h-2c-2 1 -4 3 -4 5v51c0 1 1 3 2 4l83 89c2 2 4 3 7 2c2 -1 3 -3 3 -6v-50c0 -1 0 -3 -1 -4l-84 -90c-1 -1 -2 -1 -4 -1zM421 189l-72 -77v-32l72 77v32zM343 59h-2c-2 1 -4 3 -4 6v49c0 2 1 3 2 4l83 90c2 2 4 2 7 2c2 -1 3 -4 3 -6v-49
c0 -2 0 -3 -1 -4l-84 -90c-1 -2 -2 -2 -4 -2zM421 36l-72 -77v-29l72 77v29zM343 -91c-1 0 -1 1 -2 1c-2 1 -4 3 -4 5v46c0 2 1 3 2 4l83 90c2 2 4 3 7 2c2 -1 3 -3 3 -6v-46c0 -1 0 -3 -1 -4l-84 -90c-1 -1 -2 -2 -4 -2zM421 289l-72 -77v-32l72 77v32zM343 159h-2
c-2 1 -4 3 -4 6v50c0 1 1 3 2 4l83 89c2 2 4 2 7 1c2 0 3 -3 3 -5v-50c0 -1 0 -3 -1 -4l-84 -89c-1 -2 -2 -2 -4 -2zM349 -185v-3h29l43 45v35zM381 -200h-38c-3 0 -6 3 -6 6v12c0 1 1 3 2 4l83 89c2 2 4 2 7 1c2 -1 3 -3 3 -5v-52c0 -2 0 -3 -1 -4l-46 -49
c-1 -1 -3 -2 -4 -2zM421 -60l-72 -77v-30l72 76v31zM343 -188h-2c-2 1 -4 3 -4 6v47c0 2 1 3 2 4l83 90c2 1 4 2 7 1c2 -1 3 -3 3 -5v-48c0 -2 0 -3 -1 -4l-84 -89c-1 -2 -2 -2 -4 -2zM421 -160l-27 -28h27v28zM426 -200h-45c-3 0 -5 1 -6 4c-1 2 0 4 1 6l46 49c2 2 4 2 7 1
c2 0 3 -3 3 -5v-49c0 -3 -2 -6 -6 -6zM421 -10l-72 -77v-33l72 77v33zM343 -141c-1 0 -1 0 -2 1c-2 1 -4 3 -4 5v50c0 2 1 3 2 4l83 90c2 2 4 2 7 2c2 -1 3 -4 3 -6v-50c0 -2 0 -3 -1 -4l-84 -90c-1 -1 -2 -2 -4 -2zM421 635l-72 -77v-29l72 77v29zM343 509h-2
c-2 1 -4 3 -4 5v46c0 2 1 3 2 4l83 90c2 2 4 2 7 1c2 -1 3 -3 3 -5v-47c0 -1 0 -3 -1 -4l-84 -89c-1 -1 -2 -1 -4 -1zM421 686l-72 -77v-34l72 77v34zM343 555h-2c-2 1 -4 3 -4 5v51c0 2 1 3 2 4l83 90c2 1 4 2 7 1c2 -1 3 -3 3 -5v-51c0 -2 0 -3 -1 -4l-84 -90
c-1 -1 -2 -1 -4 -1zM421 338l-72 -77v-31l72 76v32zM343 209h-2c-2 1 -4 3 -4 6v48c0 2 1 3 2 4l83 90c2 2 4 2 7 1c2 -1 3 -3 3 -5v-49c0 -2 0 -3 -1 -4l-84 -89c-1 -2 -2 -2 -4 -2zM421 589l-72 -77v-38l72 78v37zM343 453c-1 0 -1 0 -2 1c-2 1 -4 3 -4 5v55c0 2 1 3 2 4
l83 89c2 2 4 3 7 2c2 -1 3 -3 3 -6v-54c0 -1 0 -3 -1 -4l-84 -90c-1 -1 -2 -2 -4 -2zM372 704h-23v-25zM343 658c-1 0 -1 0 -2 1c-2 1 -4 3 -4 5v46c0 3 3 6 6 6h43c2 0 4 -2 5 -4s1 -5 -1 -6l-43 -46c-1 -1 -2 -2 -4 -2zM388 704l-39 -42v-36l72 77v1h-33zM343 606h-2
c-2 1 -4 3 -4 5v53c0 2 1 3 2 4l43 46c1 1 2 2 4 2h40c4 0 6 -3 6 -6v-9c0 -2 0 -3 -1 -4l-84 -90c-1 -1 -2 -1 -4 -1zM421 437l-72 -77v-31l72 77v31zM343 308c-1 0 -1 0 -2 1c-2 1 -4 3 -4 5v49c0 1 1 2 2 4l83 89c2 2 4 3 7 2c2 -1 3 -3 3 -6v-48c0 -2 0 -3 -1 -4
l-84 -90c-1 -1 -2 -2 -4 -2zM421 484l-72 -76v-30l72 76v30zM343 357h-2c-2 1 -4 3 -4 6v47c0 2 1 3 2 4l83 89c2 2 4 3 7 2c2 -1 3 -3 3 -6v-47c0 -1 0 -3 -1 -4l-84 -89c-1 -2 -2 -2 -4 -2zM421 534l-72 -77v-32l72 77v32zM343 404c-1 0 -1 0 -2 1c-2 0 -4 3 -4 5v49
c0 2 1 3 2 4l83 90c2 2 4 3 7 2c2 -1 3 -3 3 -6v-50c0 -1 0 -3 -1 -4l-84 -89c-1 -1 -2 -2 -4 -2zM421 389l-72 -77v-34l72 77v34zM343 258h-2c-2 1 -4 3 -4 5v51c0 2 1 3 2 4l83 90c2 2 4 2 7 1c2 0 3 -3 3 -5v-51c0 -2 0 -3 -1 -4l-84 -90c-1 -1 -2 -1 -4 -1z" />
    <glyph glyph-name="five" unicode="5" horiz-adv-x="497" 
d="M354 49c1 18 2 37 2 55v0v0v3c0 14 0 29 -1 43c-1 15 -3 30 -4 44c-2 15 -5 30 -8 44c-3 12 -6 25 -10 36c-4 12 -8 24 -13 36s-11 23 -17 33v0c-5 10 -12 19 -18 27c-7 10 -15 18 -22 26v0c-11 10 -19 16 -22 17c-148 -1 -173 -141 -174 -147c-1 -3 -3 -5 -6 -4
c-3 0 -6 2 -6 5l1 364v1v1v38v34c0 3 3 6 6 6h32h43h44h48h46h45h46h44h13c4 0 6 -3 6 -6v-40v-32c0 -3 -2 -6 -6 -6h-30h-49h-44h-47h-45h-46h-47h-44h-3l-1 -321c19 47 66 119 175 119h5c5 0 13 0 24 -2c71 -9 113 -53 139 -105c2 -4 4 -7 5 -11c6 -12 10 -25 14 -38
s7 -26 10 -40c2 -13 4 -27 6 -42c1 -16 2 -34 2 -51v-28c-1 -7 -1 -14 -1 -22v0v0c0 -10 -2 -21 -3 -31v0c0 -5 -1 -10 -2 -15v-4c-1 -2 -1 -4 -1 -6v0c0 -2 -1 -3 -1 -4c0 -3 -1 -6 -1 -9c-1 -2 -1 -5 -2 -8c0 -3 -1 -5 -1 -8c-1 -3 -1 -5 -2 -8s-1 -5 -2 -8
c0 -2 -1 -5 -2 -7c0 -3 -1 -7 -2 -10c-1 -1 -1 -2 -1 -4h-1c0 -3 -1 -5 -2 -8c0 -1 -1 -3 -1 -4c-29 -88 -83 -141 -155 -150c-8 -2 -14 -2 -18 -2h-4c-107 0 -190 111 -190 251c0 4 3 6 6 6s6 -2 6 -6c0 -133 78 -238 177 -239c7 4 53 31 84 112v0c8 21 14 45 19 70
c3 17 5 36 7 55zM140 699l-56 -60h29l55 60h-28zM215 699h-31l-56 -60h32zM417 639v12l-10 -12h10zM417 668v31h-4l-56 -60h34zM341 639l56 60h-28l-56 -60h28zM297 639l56 60h-31l-10 -11l-46 -49h31zM261 650l45 49h-29l-56 -60h30zM205 639l56 60h-30l-55 -60h29zM68 639
l56 60h-28l-28 -30v-30v0zM68 699v-13l12 13h-12zM332 311l9 -24l45 48c-4 7 -9 13 -14 19zM315 345c4 -7 8 -14 12 -22l37 40c-6 5 -12 11 -18 15v0zM297 373c4 -5 8 -11 12 -17l28 29c-6 4 -12 8 -19 11zM290 383l3 3l14 15c-8 3 -16 6 -24 8l-8 -9c5 -5 10 -11 15 -17z
M262 413c1 -2 3 -3 4 -5l3 4c-2 0 -5 0 -7 1zM291 -181c36 12 84 43 115 123zM434 89c0 10 1 21 1 31l-70 -74c-1 -12 -2 -24 -4 -35zM368 102c0 -13 -1 -25 -1 -38l68 74c0 10 -1 22 -2 34zM358 -10c-3 -15 -7 -30 -11 -44l82 87v4c1 3 1 7 1 10c1 3 1 5 1 8c1 3 1 5 1 8
c0 2 1 5 1 8zM408 293l-53 -56c2 -10 4 -19 5 -29l56 60c-2 8 -5 17 -8 25zM428 214l-61 -66c0 -10 1 -19 1 -29l64 69c-1 8 -2 17 -4 26zM403 305c-3 6 -6 12 -9 17c0 1 -1 2 -1 3l-48 -51c3 -7 5 -15 7 -23zM362 193c2 -10 3 -19 4 -29l60 64l-6 27zM338 -81
c-22 -59 -52 -90 -71 -106c1 0 2 1 3 1l145 155l3 12c0 1 1 2 1 3c1 3 2 6 2 10c1 1 1 2 1 4c1 3 2 7 2 10c1 1 1 2 1 3v1z" />
    <glyph glyph-name="six" unicode="6" horiz-adv-x="482" 
d="M390 259c25 -42 43 -105 43 -197c0 -255 -163 -262 -181 -262h-2h-1h-1c-19 0 -176 7 -190 245v0c-2 19 -40 464 94 611c28 30 61 46 100 46v0v0h1c4 0 9 0 14 -1c13 -1 26 -4 38 -9s22 -11 32 -19c8 -7 16 -15 23 -25c8 -9 15 -21 21 -33c5 -11 10 -23 14 -35
s7 -25 10 -38c3 -17 4 -29 4 -30s0 -3 -1 -4s-3 -2 -5 -2h-31h-43c-2 0 -3 1 -4 2s-1 2 -2 3v0v1v0v0c0 3 -2 22 -2 48v0v0c-1 16 -3 32 -6 46v0c-3 13 -6 25 -10 35c-5 13 -11 23 -17 31c-7 9 -15 14 -24 17c-4 1 -8 1 -11 1h-1v0c-35 0 -66 -14 -91 -42
c-88 -97 -99 -336 -97 -482c33 176 169 182 186 182h2v0h1c9 0 55 -3 99 -41c3 -3 7 -7 11 -10v0v0v0v0c7 -8 14 -17 21 -27c2 -3 4 -7 6 -11zM304 679l-4 -4c5 -6 9 -13 12 -21l6 6l7 7c-7 5 -14 9 -21 12zM367 545l-25 -27h28l23 25c-2 8 -4 16 -6 23zM386 518h11
c-1 3 -1 6 -2 10zM335 527l48 52c-3 8 -6 16 -9 23l-41 -44c1 -12 2 -23 2 -31zM332 574l37 39c-5 8 -9 16 -14 23l-13 -14l-15 -17c2 -10 3 -20 5 -31zM348 645c-5 6 -9 11 -14 15l-17 -18c2 -7 5 -15 7 -23zM298 324l-1 -2c5 -5 10 -12 14 -19l4 4l6 7c-7 4 -14 7 -23 10z
M326 302l-9 -10c4 -8 7 -16 10 -24l23 24c-2 3 -4 5 -7 7v0c-1 0 -1 1 -2 2l-9 6zM419 50l-69 -73c-1 -14 -3 -27 -5 -39l73 78c1 11 1 22 1 34zM402 198c-2 9 -5 17 -8 24l-46 -49l3 -30zM354 82v-26v-10l62 67c0 11 -2 22 -3 32zM405 185l-53 -58c0 -9 1 -19 1 -28l57 61
c-1 9 -3 17 -5 25zM419 67c0 10 -1 20 -1 30l-65 -69c0 -11 0 -22 -1 -32zM389 234c-2 7 -5 13 -9 18c0 2 -1 4 -2 5l-2 -2l-35 -37c1 -10 3 -20 5 -30zM358 284l-27 -29c2 -7 5 -15 6 -23l34 35c-4 6 -9 12 -13 17zM341 -84c-5 -20 -11 -36 -17 -50l47 50l37 40
c4 13 6 26 8 40zM299 -178c34 12 77 41 102 108zM68 81c0 -262 161 -269 180 -269h1h1v0h1c10 0 56 8 78 108c5 18 8 38 10 60c1 16 2 33 3 51v0v0v25v28v0c-1 16 -1 31 -2 45c-1 16 -3 31 -4 45c-2 16 -5 30 -8 44c-2 13 -6 26 -9 37v0c-4 13 -9 25 -14 35v0
c-6 12 -13 21 -20 28c-6 7 -13 12 -20 15l-6 1v0l-8 2h-1c-18 0 -182 -7 -182 -255z" />
    <glyph glyph-name="seven" unicode="7" horiz-adv-x="470" 
d="M434 713c1 -2 1 -4 1 -5l-6 -20l-21 -68l-22 -72l-24 -77l-22 -74l-23 -73l-23 -76l-22 -73l-24 -78l-24 -77l-21 -70l-23 -75l-22 -71c-1 -2 -3 -4 -6 -4v0v0v0h-44h-43c-2 0 -4 1 -5 2c-1 2 -1 4 -1 6l2 6l23 70l25 80l25 78l24 75l24 77l24 75l24 75l25 78l23 74
l23 71l25 79l18 58h-283v-76c0 -3 -3 -6 -6 -6s-6 3 -6 6v82c0 3 3 6 6 6h373c1 0 2 -1 3 -1c1 -1 2 -1 3 -2zM289 491l-15 -47l100 107l14 46l-31 -33zM266 418l-17 -52l101 108l16 52zM241 339l-16 -48l33 35l70 75l14 48zM193 189l-16 -50l32 35l73 78l15 50zM94 -121
l-14 -44l14 15l97 104l13 44zM160 -147l-38 -41h25zM345 667l34 36h-22zM337 641l-17 -53l97 104l3 11h-25l-26 -27zM312 562l-15 -45l15 16l84 90l13 43zM217 265l-16 -49l104 111l15 48l-98 -105zM169 112l-16 -49l34 38l73 78l14 47zM145 37l-17 -52l98 105l10 11l16 52
l-34 -37zM120 -41l-17 -53l109 118l16 51l-46 -49zM183 -71l-108 -117h31l62 67z" />
    <glyph glyph-name="eight" unicode="8" horiz-adv-x="468" 
d="M429 90v-13c0 -19 -1 -38 -2 -55c-3 -24 -7 -46 -12 -67c-1 -1 -1 -3 -2 -4c-42 -146 -156 -151 -171 -151h-4v0h-1v0h-1v0c-24 1 -191 18 -191 289c0 198 90 249 148 262c-43 15 -96 60 -96 187c0 169 117 178 141 178h5h4c22 0 133 -9 133 -178v0v0v0v0v-14v0v0
c0 -22 -1 -42 -8 -61v0c-7 -22 -12 -38 -21 -52c-22 -37 -52 -54 -75 -61c7 -2 14 -4 21 -7c11 -5 22 -10 32 -17c9 -6 19 -14 27 -23c8 -8 15 -16 22 -26s14 -22 19 -34c6 -11 10 -24 14 -37c4 -12 7 -24 9 -37c3 -15 5 -30 7 -46c1 -11 1 -22 2 -33zM272 338
c3 -3 6 -5 8 -7l3 3v0c-4 1 -7 3 -11 4zM343 197l20 21l21 23c-4 8 -8 15 -12 22l-35 -38c2 -9 4 -18 6 -28zM398 205c-2 9 -5 17 -9 24l-44 -47c1 -10 3 -20 4 -30zM408 169c-2 8 -4 16 -6 23l-52 -56c0 -9 1 -19 1 -28zM351 90v-2v-32l60 64l3 4c-1 11 -2 21 -3 30z
M333 238l13 14l19 21c-5 6 -9 11 -14 17l-26 -28c3 -8 5 -16 8 -24zM330 666l-35 -37c2 -9 4 -19 6 -29l43 46c-4 8 -9 14 -14 20zM350 635l-47 -50c1 -10 2 -20 3 -31l53 57zM307 537v-9c0 -7 -1 -14 -1 -20l60 64c-1 9 -2 17 -4 25zM283 366c23 10 51 31 68 71
c1 1 1 2 2 4zM267 697l-2 -2c4 -6 8 -13 12 -21l17 19c-5 2 -9 4 -14 6h-2s-1 1 -2 1c-2 0 -4 1 -5 1zM305 687l-22 -24c3 -7 5 -14 8 -21l30 33c-2 2 -5 4 -7 6c-1 0 -1 0 -1 1c-2 1 -4 3 -7 4c0 1 0 1 -1 1zM305 489c-1 -13 -3 -25 -5 -36l68 73c0 4 1 8 0 12v18zM295 430
c-10 -37 -25 -60 -36 -72l102 109c3 12 5 26 6 41zM295 329l-6 -7c4 -5 9 -11 13 -17l13 14c-7 4 -13 8 -20 10zM325 312l-16 -17c4 -7 8 -14 11 -22l23 25c-6 5 -12 10 -18 14zM350 38c-1 -12 -2 -23 -3 -34l70 75c-1 10 -1 20 -1 29zM344 -17c-3 -15 -6 -30 -9 -44l80 85
c1 12 1 24 2 37zM395 -67l-100 -107c36 15 76 45 100 107zM327 -87c-18 -52 -43 -81 -62 -96c3 0 5 1 7 1l132 142l3 15c2 10 4 19 5 30zM109 538c0 -170 98 -183 128 -183h3c7 5 30 27 44 79c5 18 8 37 9 58c1 11 2 24 2 36v12c-1 16 -2 32 -4 46c-2 15 -5 30 -9 43
c-3 12 -7 23 -12 33c-5 11 -11 21 -18 29c-6 8 -10 12 -12 13h-2c-13 0 -44 -2 -73 -24c-37 -27 -56 -75 -56 -142zM57 89c0 -258 154 -276 178 -277c8 3 53 24 81 106c7 21 13 44 16 69c3 16 5 34 6 54v0v0c0 15 2 31 2 47l-1 5v0c0 15 0 30 -1 44c-1 16 -3 32 -5 46
c-2 15 -5 29 -9 42v0c-3 13 -7 25 -11 36v0c-5 11 -10 22 -16 31v0c-7 10 -13 19 -21 26v0c-8 8 -16 15 -25 19v0c-10 5 -17 6 -17 6v0h-6c-40 0 -171 -18 -171 -254z" />
    <glyph glyph-name="nine" unicode="9" horiz-adv-x="447" 
d="M403 460c2 -19 39 -465 -95 -613c-28 -31 -62 -47 -101 -47v0v0h-1c-5 0 -9 0 -14 1c-13 1 -26 4 -37 8c-12 5 -24 12 -34 20c-9 8 -18 17 -25 27v0c-7 10 -13 20 -19 30c-5 11 -10 23 -14 36c-4 12 -7 24 -10 37v0c-4 19 -5 31 -5 32c0 2 1 3 2 4c1 2 2 2 4 2h34h41
c2 0 3 0 4 -1c1 -2 2 -3 2 -5v-2v0v0c0 -5 0 -24 2 -47v0c1 -15 3 -29 6 -42c3 -14 6 -28 11 -39c5 -13 10 -24 17 -32v0c7 -8 15 -13 24 -16v0c4 -1 7 -1 11 -1h1v0c35 0 66 15 92 43c93 102 101 363 97 506c-32 -165 -160 -171 -176 -171h-1h-1v0h-1c-9 0 -47 3 -85 32
c-4 3 -8 6 -11 9c-9 8 -17 17 -24 27c-4 7 -8 13 -12 21c0 0 -1 1 -1 2c0 0 -1 0 -1 1c-24 45 -36 105 -36 179c0 241 154 248 172 248h1h1h1c18 0 174 -8 181 -248v-1zM156 -178l3 4c-5 6 -9 13 -13 22l-12 -13c7 -5 14 -10 22 -13zM101 -131l3 4l27 28c-2 8 -3 17 -4 26
l-37 -39c3 -7 7 -13 11 -19zM71 -65l46 50h-27l-6 -7l-19 -20c2 -8 4 -15 6 -23zM74 -15h-13c0 -3 1 -7 1 -12l2 2zM123 -26l-48 -52c3 -8 6 -15 9 -23l41 44c-1 12 -2 23 -2 31zM108 -140c5 -7 11 -13 16 -18l17 18c-3 8 -5 17 -8 27zM163 218c4 -2 9 -4 14 -5
c-3 3 -6 7 -9 10zM152 224l10 10c-4 6 -8 14 -11 22l-18 -19l1 -1c1 -1 3 -2 4 -4c5 -3 9 -6 14 -8zM84 599l77 83c-28 -13 -57 -38 -77 -83zM125 542c2 16 4 31 7 45l-69 -74c-2 -13 -2 -27 -2 -41zM122 441v26v4l-58 -62c0 -10 1 -19 3 -28l30 34zM75 341l49 53
c-1 10 -1 20 -2 30l-53 -57c2 -9 3 -18 6 -26zM129 348c-2 10 -3 20 -4 30l-47 -50c3 -9 6 -17 9 -25zM61 455c0 -10 1 -21 1 -30l60 64c0 11 1 23 1 34zM92 291c1 -2 2 -5 3 -7c3 -4 5 -8 8 -12l33 35c-2 8 -4 17 -5 26zM136 257l10 11c-2 8 -5 16 -7 25l-29 -31
c5 -6 10 -12 15 -17zM137 610c5 20 12 37 19 50l-82 -89c-4 -12 -7 -25 -9 -38zM220 202c18 0 171 7 171 241c0 247 -151 254 -169 254h-1v0v0h-1h-1c-8 0 -49 -7 -71 -92c-5 -19 -9 -42 -11 -66c-2 -17 -3 -34 -3 -53c0 -6 -1 -13 -1 -19c0 -10 1 -19 1 -28
c0 -16 2 -32 2 -46v0v0c1 -17 3 -32 5 -46v0v0c2 -15 4 -28 7 -41c3 -14 7 -26 11 -37c4 -13 9 -24 15 -33c6 -10 13 -18 21 -24v0c4 -3 7 -5 11 -7l13 -3h1z" />
    <glyph glyph-name="semicolon" unicode=";" 
 />
    <glyph glyph-name="A" unicode="A" horiz-adv-x="540" 
d="M464 433v0v0v-627c0 -3 -3 -6 -6 -6s-6 3 -6 6v621h-293v-20v-49v-50v-51v-50v-52v-52v-47v-52v-48v-53v-53v-44c0 -3 -3 -6 -6 -6h-41h-30c-3 0 -6 3 -6 6v21v52v49v51v47v52v52v50v51v50v50v51v49v9c0 1 -1 15 0 38c0 18 1 36 2 54c2 23 5 45 9 65c5 24 11 47 18 67v0
c26 71 67 115 121 130c15 4 30 6 46 6c0 0 1 0 2 -1c1 1 2 1 3 1v0c44 -1 81 -18 110 -50c89 -98 77 -301 77 -310v-7zM207 774c-32 -15 -58 -43 -78 -83zM116 659c-5 -14 -9 -28 -13 -43l79 84c17 46 38 71 55 84c-2 0 -4 0 -6 -1zM153 564c1 13 3 27 5 39l-68 -74
c-1 -12 -2 -24 -2 -35zM88 380v-34l59 64v31v3l-19 -21zM147 310v33l-59 -64v-33zM88 145l59 65v32l-59 -64v-33zM147 157v35l-59 -64v-35zM88 -106l9 10l50 54v31l-59 -64v-31zM147 -59l-9 -10l-50 -54v-35l59 64v35zM147 7v33l-59 -64v-33zM147 58v29l-59 -64v-29z
M147 105v35l-59 -64v-35zM147 259v34l-59 -64v-34zM147 360v32l-59 -64v-32zM148 494l-58 -63l-2 -2v-32l59 65c0 11 1 21 1 32zM149 512c1 11 1 22 2 32l-64 -68c0 -14 0 -24 1 -30zM162 625c3 17 7 33 11 48l-75 -80c-2 -14 -4 -29 -6 -44zM88 -176v-12h22l37 40v36z
M126 -188h21v23zM159 439h293v1c0 3 12 208 -74 302c-27 29 -61 45 -102 46c0 0 -1 0 -2 1c-1 -1 -1 -1 -2 -1s-46 -4 -79 -93c-8 -22 -15 -47 -20 -74c-3 -19 -6 -39 -8 -60v0c-2 -17 -3 -34 -4 -52c-1 -16 -2 -33 -2 -50v0v0v-18v-2z" />
    <glyph glyph-name="B" unicode="B" horiz-adv-x="520" 
d="M145 171l-67 -68v-34l67 68v34zM72 49h-2c-3 1 -4 3 -4 6v51c0 1 1 3 2 4l79 80c1 2 4 2 6 1s4 -3 4 -5v-51c0 -2 -1 -3 -2 -4l-79 -80c-1 -1 -3 -2 -4 -2zM145 120l-67 -68v-32l67 68v32zM72 0h-2c-3 1 -4 3 -4 6v49c0 1 1 3 2 4l79 80c1 2 4 2 6 1s4 -3 4 -5v-49
c0 -2 -1 -3 -2 -4l-79 -80c-1 -1 -3 -2 -4 -2zM145 224l-67 -68v-36l67 68v36zM72 100h-2c-3 1 -4 3 -4 6v53c0 1 1 3 2 4l79 80c1 2 4 2 6 1s4 -3 4 -5v-53c0 -2 -1 -3 -2 -4l-79 -80c-1 -1 -3 -2 -4 -2zM145 71l-67 -68v-35l67 68v35zM72 -53c-1 0 -2 0 -2 1
c-3 1 -4 3 -4 5v53c0 1 1 3 2 4l79 80c1 2 4 2 6 1s4 -3 4 -5v-53c0 -1 -1 -3 -2 -4l-79 -80c-1 -1 -3 -2 -4 -2zM145 273l-67 -68v-32l67 68v32zM72 153h-2c-3 1 -4 3 -4 6v49c0 1 1 3 2 4l79 80c1 2 4 2 6 1s4 -3 4 -5v-49c0 -2 -1 -3 -2 -4l-79 -81c-1 -1 -3 -1 -4 -1z
M145 -182l-7 -6h7v6zM151 -200h-27c-2 0 -4 1 -5 4c-1 2 -1 4 1 6l27 27c1 2 4 2 6 1s4 -3 4 -5v-27c0 -3 -3 -6 -6 -6zM145 324l-67 -68v-34l67 68v34zM72 202h-2c-3 1 -4 3 -4 6v51c0 1 1 3 2 4l79 80c1 2 4 2 6 1s4 -3 4 -5v-51c0 -2 -1 -3 -2 -4l-79 -80
c-1 -2 -3 -2 -4 -2zM145 19l-67 -68v-34l67 68v34zM72 -104c-1 0 -2 0 -2 1c-3 1 -4 3 -4 5v51c0 2 1 3 2 4l79 80c1 2 4 3 6 2s4 -3 4 -6v-51c0 -1 -1 -3 -2 -4l-79 -80c-1 -1 -3 -2 -4 -2zM145 -131l-57 -57h34l23 23v34zM124 -200h-50c-2 0 -5 1 -6 4c0 2 0 4 2 6l77 78
c1 2 4 2 6 1s4 -3 4 -5v-51c0 -2 -1 -3 -2 -4l-27 -27c-1 -1 -2 -2 -4 -2zM145 -32l-67 -68v-32l67 68v32zM72 -153c-1 0 -2 0 -2 1c-3 1 -4 3 -4 5v49c0 2 1 3 2 4l79 80c1 2 4 3 6 2s4 -3 4 -6v-49c0 -1 -1 -3 -2 -4l-79 -80c-1 -1 -3 -2 -4 -2zM145 -81l-67 -68v-33
l67 68v33zM74 -200h-2c-3 0 -6 3 -6 6v47c0 2 1 3 2 4l79 80c1 2 4 3 6 2s4 -3 4 -6v-49c0 -2 -1 -3 -2 -4l-77 -78c-1 -1 -2 -2 -4 -2zM145 426l-67 -68v-32l67 68v32zM72 306h-2c-3 1 -4 3 -4 5v49c0 2 1 3 2 5l79 80c1 1 4 2 6 1s4 -3 4 -6v-49c0 -1 -1 -3 -2 -4l-79 -80
c-1 -1 -3 -1 -4 -1zM145 779l-67 -68v-34l67 68v34zM72 657h-2c-3 1 -4 3 -4 5v51c0 2 1 4 2 5l79 80c1 1 4 2 6 1s4 -3 4 -5v-51c0 -2 -1 -4 -2 -5l-79 -80c-1 -1 -3 -1 -4 -1zM145 728l-67 -68v-32l67 68v32zM72 608h-2c-3 1 -4 3 -4 5v49c0 2 1 4 2 5l79 80c1 1 4 2 6 1
s4 -3 4 -5v-50c0 -1 -1 -3 -2 -4l-79 -80c-1 -1 -3 -1 -4 -1zM86 788h-8v-8zM72 759c-1 0 -2 0 -2 1c-3 1 -4 3 -4 5v29c0 3 3 6 6 6h28c3 0 5 -1 6 -4c1 -2 0 -4 -1 -6l-29 -29c-1 -1 -3 -2 -4 -2zM145 679l-67 -68v-36l67 68v36zM72 555h-2c-3 1 -4 3 -4 6v52c0 2 1 4 2 5
l79 80c1 1 4 2 6 1s4 -3 4 -6v-52c0 -2 -1 -3 -2 -4l-79 -80c-1 -2 -3 -2 -4 -2zM103 788l-25 -25v-35l59 60h-34zM72 708h-2c-3 1 -4 3 -4 5v52c0 2 1 3 2 4l28 29c1 1 3 2 4 2h51c3 0 6 -3 6 -6c0 -1 -1 -4 -2 -5l-79 -80c-1 -1 -3 -1 -4 -1zM145 575l-67 -68v-32l67 68
v32zM72 455h-2c-3 1 -4 3 -4 6v49c0 1 1 3 2 4l79 80c1 2 4 2 6 1s4 -3 4 -5v-49c0 -2 -1 -3 -2 -4l-79 -80c-1 -2 -3 -2 -4 -2zM145 477l-67 -68v-34l67 68v34zM72 355h-2c-3 1 -4 3 -4 5v51c0 2 1 4 2 5l79 80c1 1 4 2 6 1s4 -3 4 -6v-51c0 -1 -1 -3 -2 -4l-79 -80
c-1 -1 -3 -1 -4 -1zM145 526l-67 -68v-32l67 68v32zM72 406h-2c-3 1 -4 3 -4 5v50c0 1 1 3 2 4l79 80c1 2 4 2 6 1s4 -3 4 -5v-50c0 -1 -1 -3 -2 -4l-79 -80c-1 -1 -3 -1 -4 -1zM145 626l-67 -68v-34l67 68v34zM72 504h-2c-3 1 -4 3 -4 6v51c0 1 1 3 2 4l79 80c1 2 4 2 6 1
s4 -3 4 -5v-51c0 -2 -1 -3 -2 -4l-79 -80c-1 -2 -3 -2 -4 -2zM145 377l-67 -68v-36l67 68v36zM72 253h-2c-3 1 -4 3 -4 6v52c0 2 1 3 2 5l79 80c1 1 4 2 6 1s4 -3 4 -6v-52c0 -2 -1 -3 -2 -4l-79 -80c-1 -2 -3 -2 -4 -2zM157 -199h-1c-4 0 -6 3 -6 6s3 6 6 6v0
c9 0 119 1 199 80c59 58 88 142 88 250c0 121 -47 207 -141 255c-70 37 -141 37 -142 37c-3 0 -6 3 -6 6s2 6 6 6c6 1 167 17 167 176c0 49 -15 88 -43 116c-51 48 -128 46 -129 46c-3 0 -6 3 -6 6s2 6 6 6c3 0 83 2 137 -50c31 -30 47 -71 47 -124
c0 -119 -88 -164 -140 -180c28 -4 68 -13 108 -34c68 -35 148 -109 148 -266c0 -112 -31 -199 -92 -258c-82 -81 -191 -84 -206 -84z" />
    <glyph glyph-name="C" unicode="C" horiz-adv-x="501" 
d="M446 137c0 0 2 -82 -20 -164c-29 -110 -87 -170 -167 -173v0c-2 0 -3 0 -3 1c-1 -1 -2 -1 -4 -1c-31 0 -60 8 -84 25c-9 6 -18 13 -25 21v0c-9 9 -17 19 -24 30c-7 10 -13 21 -19 33c-5 11 -9 22 -13 34v0c-5 13 -9 26 -12 39s-6 26 -8 39c-3 15 -5 30 -6 46
c-2 20 -4 38 -4 48v0v20v30v51v50v49v51v49v26v22c0 17 1 35 3 53c2 22 4 44 8 64v0c4 23 9 44 15 64v0c29 91 77 143 145 154v0c8 1 17 2 26 2c2 0 3 0 4 -1c1 1 2 1 3 1c128 -4 170 -126 182 -228c0 -3 -2 -6 -5 -7h-1c-3 0 -5 3 -6 6c-12 97 -51 213 -170 217
c-2 0 -3 1 -3 1c-1 0 -2 -1 -3 -1c-2 0 -45 -6 -76 -104c-6 -21 -11 -44 -16 -70c-3 -18 -5 -38 -7 -59v0c-1 -15 -3 -32 -3 -50c-1 -16 -2 -33 -2 -50v0v0v-14v-38v0l-1 -50v0v0l-1 -51v-51l-1 -50l-1 -53v-9s0 -17 1 -42c1 -15 2 -30 2 -44v0v0c2 -16 3 -31 5 -46
c1 -15 3 -29 6 -42v0v0c2 -15 5 -29 8 -42v0c4 -14 8 -28 13 -39c4 -12 8 -22 13 -31v0c16 -27 35 -41 57 -41c2 0 3 -1 3 -1c1 0 2 1 3 1c183 6 176 322 176 325s2 6 6 6c3 0 6 -2 6 -6zM84 598l23 25l61 66c7 22 15 39 22 53l-17 -18l-79 -85c-4 -13 -7 -27 -10 -41z
M69 213v-33l68 73v34zM139 388l-23 -25l-47 -50v-32l69 74zM152 618c3 16 6 32 9 46l-40 -43l-42 -45c-2 -14 -4 -29 -6 -44zM71 513c-1 -12 -1 -24 -2 -35l65 69l10 11c2 14 3 26 5 39zM69 441v-11l2 3l70 75c0 10 1 21 2 31l-74 -79v-19zM69 413v-32l71 77v31l-22 -23z
M69 364v-34l34 37l36 38v35zM69 264v-33l69 74v33l-32 -35zM69 135v-5l34 38l33 35l1 33l-41 -45l-27 -28v-28zM69 113c1 -8 1 -19 2 -32l60 64l5 5v36l-19 -21zM73 65c1 -10 2 -20 4 -30l59 64c0 15 -1 27 -1 34zM79 20c2 -8 3 -16 5 -24l54 59c0 9 -1 18 -1 27zM140 39
l-53 -57c3 -9 5 -17 8 -25l48 51c-1 10 -2 20 -3 31zM211 782c-47 -14 -83 -53 -107 -116l104 113zM145 -7l-46 -49c3 -8 5 -15 8 -22l41 44zM151 -48l-38 -41c4 -8 8 -15 12 -22l19 20l13 14c-2 9 -4 19 -6 29zM154 -98l-23 -24c5 -7 10 -13 16 -19l18 19l4 5
c-3 8 -6 17 -8 27zM171 -132l-16 -18l15 -12l13 13c-3 6 -6 13 -9 20zM180 -169c9 -5 18 -9 27 -12c-6 6 -12 13 -18 22l-6 -7z" />
    <glyph glyph-name="D" unicode="D" horiz-adv-x="471" 
d="M306 720c86 -85 129 -226 129 -419c0 -257 -79 -380 -145 -437c-73 -63 -145 -64 -148 -64v0h-27h-50h-2c-3 0 -6 3 -6 6v47v49v51v53v49v50v53v49v51v52v49v51v49v49v51v53v48v51v52v29c0 3 3 6 6 6h28h51v-1c12 0 90 -4 164 -77zM136 -81l-67 -68v-32l67 67v33z
M136 -32l-67 -68v-32l67 68v32zM136 18l-67 -67v-34l67 67v34zM136 71l-67 -68v-36l67 68v36zM136 120l-67 -68v-32l67 68v32zM136 171l-67 -68v-34l67 68v34zM136 223l-67 -67v-36l67 68v35zM136 272l-67 -68v-32l67 68v32zM136 323l-67 -68v-34l67 68v34zM136 376l-67 -68
v-36l67 68v36zM136 425l-67 -68v-32l67 68v32zM136 475l-67 -67v-34l67 67v34zM136 525l-67 -68v-33l67 68v33zM136 573l-67 -67v-32l67 67v32zM136 624l-67 -68v-34l67 68v34zM136 677l-67 -68v-36l67 68v36zM136 726l-67 -68v-32l67 68v32zM136 777l-67 -68v-34l67 68v34z
M134 -133l-55 -55h34l23 24v34zM69 726l59 60h-34l-25 -26v-34zM77 786h-8v-9zM136 -188v7l-6 -7h6zM282 -126c65 55 141 175 141 427c0 190 -42 328 -125 411c-62 61 -129 72 -150 73v-45v-49v-52v-51v-49v-49v-51v-49v-52v-51v-49v-53v-51v-49v-52v-51v-49v-49v-51v-20
c18 1 77 10 134 61z" />
    <glyph glyph-name="E" unicode="E" horiz-adv-x="522" 
d="M449 -188c3 0 6 -3 6 -6s-3 -6 -6 -6h-293h-1v0h-27h-50h-2c-3 0 -6 3 -6 6v47v49v51v53v49v51v52v49v51v53v49v51v49v49v51v53v49v51v51v29c0 3 3 6 6 6h28h51h1h1h292c3 0 6 -3 6 -6s-3 -6 -6 -6h-288v-45v-49v-53v-51v-49v-49v-37h197c3 0 6 -3 6 -6s-3 -6 -6 -6h-197
v-2v-49v-53v-51v-49v-52v-51v-49v-53v-51v-49v-49v-51v-21h288zM126 -188l13 13l10 10v34l-56 -56l-1 -1h34zM82 727l46 46l13 14h-34l-14 -14l-11 -11v-35zM149 -81l-67 -68v-33l67 68v33zM149 -32l-67 -68v-32l67 67v33zM149 19l-67 -68v-34l67 67v35zM149 71l-67 -68v-36
l67 68v36zM149 120l-67 -68v-32l67 68v32zM149 171l-67 -68v-34l67 68v34zM149 224l-67 -68v-36l67 68v36zM149 273l-67 -68v-32l67 68v32zM149 324l-67 -68v-34l67 68v34zM149 376l-67 -68v-35l67 68v35zM149 425l-67 -68v-32l67 68v32zM149 476l-67 -68v-34l67 68v34z
M149 526l-67 -68v-33l67 68v33zM149 574l-67 -67v-33l67 68v32zM149 625l-67 -68v-34l67 68v34zM149 678l-67 -68v-36l67 68v36zM149 727l-67 -68v-32l67 68v32zM149 778l-67 -68v-34l67 68v34zM90 787h-8v-8zM149 -188v6l-5 -5l-1 -1h6z" />
    <glyph glyph-name="F" unicode="F" horiz-adv-x="418" 
d="M438 799c3 0 6 -3 6 -6s-3 -6 -6 -6h-287v-45v-49v-53v-51v-49v-49v-37h197c3 0 6 -3 6 -6s-3 -6 -6 -6h-197v-2v-49v-53v-51v-49v-52v-51v-49v-53v-51v-49v-49v-51v-27c0 -3 -3 -6 -6 -6h-27h-50h-2c-4 0 -6 3 -6 6v47v49v51v53v49v51v52v49v51v53v49v51v49v49v51v53v49
v51v51v29c0 3 2 6 6 6h28h51h1h1h291zM139 -114v33l-67 -68v-33l34 35zM72 523l67 68v34l-67 -68v-34zM139 542v32l-67 -67v-33zM139 -32l-66 -67l-1 -1v-33l67 68v33zM139 18l-66 -66l-1 -1v-35l65 66l2 2v34zM139 71l-66 -66l-1 -2v-36l65 66l2 2v36zM139 120l-66 -66
l-1 -2v-32l65 66l2 2v32zM139 171l-66 -66l-1 -2v-34l65 66l2 2v34zM139 224l-66 -66l-1 -2v-36l65 66l2 2v36zM139 241v32l-67 -68v-32l65 66zM139 290v34l-67 -68v-34zM139 341v35l-67 -68v-35zM139 393v32l-67 -68v-32zM139 442v34l-67 -68v-34zM139 493v33l-67 -68v-33z
M139 678l-66 -66l-1 -2v-36l67 68v36zM139 727l-66 -66l-1 -2v-32l65 66l2 2v32zM139 744v34l-67 -68v-34l65 66zM79 735l52 52h-34l-24 -23l-1 -2v-35zM72 787v-8l8 8h-8zM123 -147l-41 -41h34l22 22l1 1v34zM132 -188h7v6l-2 -1z" />
    <glyph glyph-name="G" unicode="G" horiz-adv-x="514" 
d="M442 137c0 0 2 -82 -20 -164c-29 -110 -87 -170 -167 -173v0c-2 0 -3 1 -3 1c-1 0 -2 -1 -4 -1c-31 0 -60 9 -84 25v0c-9 6 -18 13 -25 21v0c-9 9 -17 19 -24 30c-7 10 -13 21 -19 33c-5 11 -9 22 -13 34v0c-5 13 -9 26 -12 40v0c-3 12 -6 25 -8 38c-3 15 -5 30 -6 46v0
v0c-2 20 -3 38 -4 48v0v20v30v51v50v49v51v49v26v22v0v0c0 17 1 35 3 53c2 22 4 44 8 64c4 23 9 44 15 64v0c29 91 77 143 145 154v0c8 1 17 2 26 2c2 0 3 0 4 -1c1 1 2 1 3 1c128 -4 170 -126 182 -228c0 -3 -2 -6 -5 -7h-1c-3 0 -5 3 -6 6c-12 97 -51 213 -170 217
c-2 0 -3 1 -3 1c-1 0 -2 -1 -3 -1c-2 0 -45 -6 -76 -104v0c-6 -21 -11 -44 -16 -70c-3 -18 -5 -38 -7 -59c-1 -15 -3 -32 -3 -50v0c-1 -16 -2 -33 -2 -50v0v-14v-38l-1 -50l-1 -51v-51l-1 -50l-1 -53v0v-9s0 -17 1 -42v0c1 -15 2 -30 2 -44v0v0c2 -16 3 -31 5 -46
c1 -15 3 -29 6 -42v0c2 -15 5 -29 8 -42c4 -14 8 -28 12 -39c5 -12 9 -22 14 -30v0c16 -28 35 -42 57 -42c2 0 2 0 3 -1c1 1 2 1 3 1c183 7 176 322 176 325v300h-210c-3 0 -6 2 -6 6c0 3 3 5 6 5h216c3 0 6 -2 6 -5v-306zM166 -162l13 14c-3 5 -6 12 -9 19l-19 -20
c5 -5 10 -9 15 -13zM143 -141l18 19l4 5c-3 8 -6 17 -8 27l-9 -9l-21 -23c5 -7 10 -13 16 -19zM109 -89c4 -8 8 -15 12 -22l32 34c-2 9 -4 19 -6 29zM80 598l34 37l50 54c7 22 15 39 22 53l-96 -103c-4 -13 -7 -27 -10 -41zM65 214v-34l68 73v34zM65 313v-32l69 74l1 33z
M148 618c3 16 6 32 9 46l-55 -59l-27 -29c-2 -14 -4 -29 -6 -44zM67 513c-1 -12 -1 -24 -2 -35l64 68l11 12c2 14 3 26 5 39l-7 -7zM65 441v-11l15 16l57 62c0 10 1 21 2 31l-9 -9l-65 -70v-19zM65 413v-31l71 76v31l-59 -64zM65 364v-34l70 75v35l-33 -36zM65 264v-33
l69 74v33l-46 -49zM65 135v-5l39 42l28 31l1 33l-1 -2l-67 -71v-28zM65 113c1 -8 1 -19 2 -32l60 64l5 5v36l-19 -21zM69 66c1 -11 2 -21 4 -31l59 64c0 15 -1 27 -1 34v-1zM75 20c2 -8 3 -16 5 -24l54 59c0 9 -1 18 -1 27zM136 39l-53 -57c3 -9 5 -17 8 -25l48 51
c-1 10 -3 20 -3 31zM207 782c-47 -14 -83 -53 -107 -116l88 96zM141 -7l-46 -49c3 -7 5 -15 8 -22l35 37l6 7zM176 -169c9 -5 18 -9 27 -12c-6 6 -12 13 -18 22z" />
    <glyph glyph-name="H" unicode="H" horiz-adv-x="544" 
d="M462 442v0v-636c0 -3 -3 -6 -6 -6s-6 3 -6 6v631h-281v-48v-53v-51v-48v-53v-50v-49v-53v-50v-49v-49v-51v-26c0 -4 -2 -6 -6 -6h-26h-50h-2c-3 0 -6 2 -6 6v46v49v51v52v49v51v52v49v51v52v49v50v49v49v51v52v49v51v51v29c0 3 3 6 6 6h28h50c4 0 6 -3 6 -6v-1v0v-51v-48
v-53v-50v-49v-49v-40h281v346c0 3 3 6 6 6s6 -3 6 -6v-351v-1zM91 406v-34l67 68v34zM158 571l-67 -67v-32l67 67v32zM158 622l-67 -68v-34l67 68v34zM91 607v-36l67 68v35zM158 774l-67 -68v-34l67 68v34zM91 655v-31l67 67v32zM91 455v-32l67 67v33zM158 391v32l-67 -68
v-32zM158 288v34l-67 -68v-34zM91 119l67 68v35l-67 -67v-36zM158 136v34l-67 -68v-34zM158 35v36l-67 -68v-36zM158 -65v32l-67 -67v-32zM158 -114v33l-67 -68v-32zM158 -16v34l-67 -68v-33zM158 87v32l-67 -67v-32zM158 239v32l-67 -68v-31zM158 339v35l-67 -67v-36z
M91 723l59 60h-34l-25 -25v-35zM91 783v-9l8 9h-8zM158 -130l-57 -58h34l23 24v34zM158 -188v7l-7 -7h7z" />
    <glyph glyph-name="I" unicode="I" horiz-adv-x="251" 
d="M168 794v0v0v-51v-50v-52v-51v-49v-50v-51v-49v-52v-51v-49v-53v-51v-49v-53v-51v-49v-49v-51v-27c0 -3 -2 -6 -6 -6h-26h-51h-2c-3 0 -6 3 -6 6v47v49v51v53v49v51v53v49v51v52v49v51v50v49v51v52v49v51v52v29c0 3 3 6 6 6h29h50c4 0 6 -3 6 -6zM89 628l67 68v32
l-67 -68v-32zM89 575l67 68v36l-67 -68v-36zM89 524l67 68v34l-67 -68v-34zM89 475l67 68v32l-67 -68v-32zM89 426l67 67v1v32l-67 -68v-32zM89 326l67 68v32l-67 -68v-32zM89 273l67 68v36l-67 -68v-36zM89 222l67 68v34l-67 -68v-34zM89 173l67 68v32l-67 -68v-32zM89 120
l67 68v36l-67 -68v-36zM89 69l67 68v34l-67 -68v-34zM89 20l67 68v32l-67 -68v-32zM89 -32l67 68v35l-67 -68v-35zM89 -83l67 68v34l-67 -68v-34zM89 -132l67 68v32l-67 -68v-32zM89 -182l55 55l12 13v33l-67 -68v-33zM156 477l-66 -67l-1 -1v-34l67 68v34zM156 779l-64 -65
l-3 -3v-34l67 68v34zM89 728l60 60h-35l-25 -25v-35zM89 788v-8l9 8h-9zM156 -131l-56 -57h33l23 23v34zM150 -188h6v6z" />
    <glyph glyph-name="J" unicode="J" horiz-adv-x="470" 
d="M389 159c0 -1 1 -17 0 -43v0c0 -17 -1 -34 -2 -50c-2 -22 -5 -42 -9 -61v0c-4 -25 -11 -48 -18 -69c-26 -72 -67 -115 -122 -130c-14 -4 -29 -6 -45 -6c-1 0 -2 0 -3 1c-1 -1 -2 -1 -3 -1v0c-44 2 -80 19 -110 51c-88 97 -77 299 -76 308c0 3 3 6 6 6c3 -1 6 -3 6 -7
c-1 -2 -12 -206 73 -299c27 -30 61 -46 102 -47c1 0 2 0 2 -1c1 0 2 1 3 1s47 4 80 95c7 21 14 44 19 70v0c3 18 6 36 8 56v0c2 17 3 36 4 56c1 18 2 36 2 54v15v34v51v50v50v51v49v47v51v54v47v51v52v46c0 4 3 6 6 6h43h28c3 0 6 -2 6 -6v-22v-50v-48v-53v-52v-47v-48v-52
v-50v-49v-51v-49v-53v-8zM367 9c2 13 4 26 6 40l-70 -75c-3 -16 -7 -32 -11 -46zM377 254l-59 -64v-32v0l59 64v32zM318 241v-33l59 63v34zM318 340v-32l59 64v32zM377 656l-53 -56l-6 -7v-37l59 65v35zM318 691v-34l59 64v33zM318 610l53 56l6 7v30l-59 -63v-30zM318 539
v-34l59 64v34zM318 458l52 56l7 8v29l-59 -63v-30zM318 441v-32l59 64v31l-52 -56zM318 392v-34l59 63v35zM318 291v-33l59 64v32zM318 141c0 -13 -1 -25 -1 -36l60 65v35zM316 86c-1 -12 -2 -25 -3 -37l65 69c0 16 0 28 -1 34zM377 100l-30 -32l-36 -39
c-1 -11 -3 -23 -4 -34l68 74c1 10 2 21 2 31zM377 772v13h-19l-40 -42v-35zM318 785v-25l14 15l10 10h-24zM258 -175c32 16 58 44 78 85zM349 -59c5 14 10 29 13 45l-70 -75l-8 -9c-18 -48 -39 -73 -56 -87c2 1 3 1 5 2z" />
    <glyph glyph-name="K" unicode="K" horiz-adv-x="516" 
d="M241 534l212 -726c1 -4 -1 -7 -4 -8h-1c-3 0 -5 2 -6 4l-210 721l-76 -91v-47v-52v-50v-49v-52v-51v-49v-52v-51v-48v-49v-51v-27c0 -3 -2 -5 -6 -5h-26h-50h-2c-3 0 -6 2 -6 5v47v49v51v52v49v50v52v49v51v52v49v50v49v49v50v53v48v51v51v29c0 3 3 6 6 6h28h50
c4 0 6 -3 6 -6v0v-1v-50v-49v-52v-51v-48v-49v-35l287 346c2 2 6 3 8 1c3 -2 3 -6 1 -9l-212 -255c1 0 1 -1 1 -1zM145 -164v33l-57 -57h34zM78 756v-35l59 60h-34zM78 705v-34l67 67v34zM78 654v-32l28 29l39 39v32zM78 605v-35l28 28l39 39v36l-29 -29zM78 553v-34l28 29
l39 39v34l-29 -29zM78 502v-31l28 28l39 39v32l-29 -29zM78 454v-32l28 28l39 39v32l-29 -28zM78 405v-34l67 68v33l-29 -28zM145 -114v32l-29 -28l-38 -39v-32zM145 -65v32l-29 -29l-38 -39v-31l28 28zM145 -16v34l-29 -29l-38 -39v-34l28 29zM145 34v36l-29 -29l-38 -39
v-35l28 28zM145 87v32l-29 -29l-38 -39v-32l28 29zM145 135v34l-67 -67v-34l28 28zM145 186v36l-67 -68v-36zM145 238v32l-29 -28l-38 -39v-32zM145 287v34l-29 -29l-38 -39v-34l28 29zM145 338v35l-29 -28l-38 -39v-36l28 29zM145 390v32l-67 -68v-32l28 29zM86 781h-8v-8z
M138 -188h7v7z" />
    <glyph glyph-name="L" unicode="L" horiz-adv-x="488" 
d="M138 -200h-77h-2c-3 0 -6 3 -6 6v47v49v51v53v49v50v53v49v51v52v49v51v49v49v51v53v48v51v52v29c0 3 3 6 6 6h28h51c3 0 6 -3 6 -6v-1v0v-51v-49v-52v-51v-49v-49v-51v-49v-52v-51v-49v-53v-51v-49v-52v-51v-49v-49v-51v-21h293c3 0 6 -2 6 -6c0 -3 -3 -6 -6 -6h-299z
M132 -81l-67 -68v-32l67 67v33zM132 -32l-67 -68v-32l67 68v32zM132 18l-67 -67v-34l67 67v34zM132 71l-67 -68v-36l67 68v36zM132 120l-67 -68v-32l67 68v32zM132 171l-67 -68v-34l67 68v34zM132 223l-67 -67v-36l67 68v35zM132 272l-67 -68v-32l67 68v32zM132 323l-67 -68
v-34l67 68v34zM132 376l-67 -68v-36l67 68v36zM132 425l-67 -68v-32l67 68v32zM132 475l-67 -67v-34l67 67v34zM132 525l-67 -68v-33l67 68v33zM132 573l-67 -67v-32l67 67v32zM132 624l-67 -68v-34l67 68v34zM132 677l-67 -68v-36l67 68v36zM132 726l-67 -68v-32l67 68v32z
M132 777l-67 -68v-34l67 68v34zM85 -178l-10 -10h34l23 24v34zM65 726l59 60h-34l-25 -26v-34zM73 786h-8v-9zM132 -181l-6 -7h6v7z" />
    <glyph glyph-name="M" unicode="M" horiz-adv-x="514" 
d="M453 794v-987c0 -4 -3 -6 -6 -6s-6 2 -6 6v958l-139 -329c-1 -2 -3 -3 -5 -3v0c-2 0 -5 1 -5 3l-132 323v-22v-48v-53v-51v-48v-49v-51v-49v-52v-51v-49v-52v-51v-49v-52v-51v-49v-49v-50v-27c0 -3 -2 -6 -6 -6h-26h-50h-2c-3 0 -6 3 -6 6v47v49v50v53v48v51v53v48v51v53
v48v51v49v49v51v52v49v50v52v29c0 3 3 6 6 6h28h50v0c1 -1 2 -1 2 -1c1 0 2 -1 2 -1h1c0 -1 1 -1 1 -2v0l137 -337l144 342c1 3 4 4 7 4c3 -1 5 -3 5 -6zM149 -82l-64 -65l-3 -3v-32l54 56l13 12v32zM149 -65v32l-67 -68v-32l64 65zM149 -16v34l-67 -68v-34zM149 34v36
l-67 -68v-35zM149 87v32l-67 -68v-32zM149 169l-64 -64l-3 -3v-34l67 67v34zM149 222l-64 -65l-3 -3v-35l64 64l3 3v36zM149 271l-64 -65l-3 -3v-32l64 65l3 3v32zM149 287v34l-67 -67v-34l64 65zM149 338v36l-67 -68v-35zM149 391v32l-67 -68v-32zM149 439v34l-67 -67v-34z
M149 522l-64 -64l-3 -3v-33l67 68v32zM149 539v32l-67 -68v-32l64 65zM149 588v34l-67 -68v-34zM149 639v35l-67 -67v-36zM149 691v32l-67 -68v-32zM149 740v34l-67 -68v-34zM97 738l44 45h-34l-25 -25v-35zM90 783h-8v-9l2 2zM136 -143l-44 -45h33l24 23v34zM142 -188h7v6z
" />
    <glyph glyph-name="N" unicode="N" horiz-adv-x="526" 
d="M437 800c4 0 6 -3 6 -6v-988c0 -3 -2 -6 -6 -6c-3 0 -5 3 -5 6v632l-280 336v-35v-49v-52v-51v-49v-49v-51v-49v-52v-51v-49v-53v-50v-49v-53v-51v-48v-49v-51v-27c0 -3 -2 -6 -6 -6h-26h-50h-2c-3 0 -6 3 -6 6v47v49v51v52v49v51v52v49v51v53v48v51v49v49v51v52v49v51
v52v28c0 4 3 6 6 6h28h50c3 0 5 -1 6 -3l280 -336v337c0 3 2 6 5 6zM74 674l67 67v34l-67 -67v-34zM74 625l67 68v32l-67 -68v-32zM74 572l67 68v36l-67 -68v-36zM74 521l67 68v34l-67 -67v-35zM74 473l67 67v32l-67 -67v-32zM74 424l67 67v33l-67 -68v-32zM74 373l67 68v34
l-67 -68v-34zM74 324l67 68v32l-67 -68v-32zM74 271l67 68v36l-67 -68v-36zM74 221l67 67v34l-67 -67v-34zM74 172l67 67v33l-67 -68v-32zM74 119l67 68v36l-67 -68v-36zM74 68l67 68v34l-67 -68v-34zM74 19l67 68v32l-67 -67v-33zM74 -33l67 68v35l-67 -67v-36zM74 -84
l67 68v34l-67 -68v-34zM74 -133l67 68v32l-67 -68v-32zM74 -182l67 68v32l-67 -68v-32zM74 725l59 60h-34l-25 -26v-34zM74 785v-9l8 9h-8zM141 -131l-57 -57h34l23 23v34zM141 -188v6l-7 -6h7z" />
    <glyph glyph-name="O" unicode="O" horiz-adv-x="506" 
d="M357 758c62 -58 93 -164 93 -316v-258v-43v-7c0 -17 -1 -89 -20 -161c-29 -110 -87 -173 -167 -173h-5v0h-1h-1c-31 0 -60 8 -84 25c-9 6 -18 13 -25 21v0c-9 9 -17 19 -24 30c-7 10 -13 21 -19 33c-5 11 -9 22 -13 34v0c-5 13 -9 26 -12 39s-6 26 -8 39
c-3 15 -5 30 -6 46c-2 20 -4 38 -4 48v0v20v30v51v50v49v51v49v26v22c0 17 1 35 3 53c2 22 4 44 8 64v0c4 23 9 44 15 64v0c29 91 77 143 145 154v0c8 1 17 2 26 2v0c2 0 51 3 99 -42zM148 558c2 14 3 26 5 39l-78 -84c-1 -12 -1 -24 -2 -35l65 69zM73 413v-32l71 76v32
l-22 -23zM73 213v-33l68 73v34zM143 388l-23 -25l-47 -50v-32l69 74zM73 364v-34l34 37l36 38v35zM73 264v-33l69 74v33l-32 -35zM73 135v-5l34 37l33 36l1 33l-41 -45l-27 -28v-28zM73 113c1 -8 1 -19 2 -32l60 64l5 5v36l-19 -21zM77 65c1 -10 2 -20 4 -30l59 64
c0 15 -1 27 -1 34zM83 20c2 -8 3 -16 5 -24l54 59c0 9 -1 18 -1 27zM144 39l-53 -57c3 -9 5 -17 8 -25l48 51c-1 10 -2 20 -3 31zM145 507c0 11 1 22 2 32l-74 -79v-19v-11l2 3zM156 618c3 16 6 32 9 46l-40 -43l-42 -45c-2 -14 -4 -29 -6 -44zM172 689c7 22 15 39 22 53
l-17 -18l-79 -85c-4 -13 -7 -27 -10 -41l23 25zM215 782c-47 -14 -83 -53 -107 -116l104 113zM149 -7l-46 -49c3 -8 5 -15 8 -22l41 44zM155 -48l-38 -41c4 -8 8 -15 12 -22l19 20l13 14c-2 9 -4 19 -6 29zM158 -98l-23 -24c5 -7 10 -13 16 -19l18 19l4 5c-3 8 -6 17 -8 27z
M175 -132l-16 -18l15 -12l13 13c-3 6 -6 13 -9 20zM184 -169c9 -5 18 -9 27 -12c-6 6 -12 13 -18 22l-6 -7zM438 138v304c0 184 -48 268 -89 307c-44 41 -89 39 -90 39c-3 0 -46 -7 -76 -104c-6 -21 -11 -44 -16 -70c-3 -18 -5 -38 -7 -59v0c-1 -16 -3 -33 -3 -50
c-1 -16 -2 -33 -2 -50v0v0v-14v-38v0l-1 -50v0v0l-1 -51v-51l-1 -50l-1 -53v-9s0 -17 1 -42c1 -15 2 -30 2 -44v0v0c2 -16 3 -31 5 -46c1 -15 3 -29 6 -42v0v0c2 -15 5 -29 8 -42v0c4 -14 8 -28 13 -39c4 -12 8 -22 13 -31v0c16 -27 35 -41 57 -41h1h1h5
c170 0 175 283 175 321v4v1z" />
    <glyph glyph-name="P" unicode="P" horiz-adv-x="391" 
d="M332 625c0 -151 -138 -182 -171 -188v-46v-53v-51v-48v-53v-51v-49v-53v-51v-49v-49v-51v-27c0 -3 -3 -5 -6 -5h-27h-50h-2c-3 0 -6 2 -6 5v48v49v50v53v49v51v53v49v51v52v49v51v49v49v51v53v49v51v51v29c0 3 3 6 6 6h28h51h1c22 -1 85 -7 129 -50
c31 -30 47 -72 47 -124zM149 -164v34l-57 -58h34zM82 762v-35l59 60h-34zM82 710v-34l67 68v34zM82 659v-32l67 68v32zM82 610v-35l67 67v36zM82 558v-34l67 67v35zM82 507v-32l67 68v32zM82 458v-33l67 68v33zM82 409v-34l66 66s-1 0 -1 1s1 3 2 4v31zM149 -113v32l-28 -29
l-39 -39v-32zM149 -64v32l-67 -68v-32l28 29zM149 -15v34l-67 -68v-34zM149 36v36l-67 -68v-36zM149 88v33l-67 -68v-32zM149 137v34l-67 -67v-35zM149 188v36l-67 -68v-36zM149 241v32l-67 -68v-32zM149 290v34l-67 -68v-34zM149 341v36l-67 -68v-36zM149 394v32l-67 -68
v-32zM90 787h-8v-8zM143 -188h6v7zM161 449c34 6 159 35 159 176c0 49 -14 88 -43 115c-38 37 -92 45 -116 47v-45v-49v-53v-51v-49v-49v-42z" />
    <glyph glyph-name="Q" unicode="Q" horiz-adv-x="499" 
d="M477 -191c2 -2 2 -5 -1 -8c-1 -1 -2 -1 -3 -1c-2 0 -3 1 -5 2l-102 112c-30 -42 -69 -65 -117 -66l-5 -1v0h-1c-30 0 -57 8 -81 24c-8 6 -16 13 -23 20v0c-8 9 -16 18 -23 29c-6 9 -12 20 -18 31c-4 11 -9 22 -13 33v0c-4 12 -8 24 -11 37c-3 12 -5 24 -7 37
c-3 14 -5 29 -6 44c-2 19 -4 36 -4 46v0v19v28v48v48v47v49v46v25v21c0 16 1 33 3 50c1 21 4 42 7 61v0c4 22 9 42 15 61v0c27 87 74 133 138 147v0c8 2 16 2 25 2v0c2 0 48 3 94 -40c59 -56 89 -157 89 -301c0 -129 -1 -204 -1 -246v-41v-7c0 -16 0 -85 -18 -153
c-9 -35 -22 -65 -37 -89zM416 459c0 176 -46 256 -85 292c-42 40 -84 38 -85 38c-3 -1 -44 -7 -73 -100c-6 -19 -11 -42 -15 -66c-3 -18 -5 -36 -7 -56v0c-1 -15 -2 -31 -3 -48c-1 -15 -1 -31 -1 -48v0v0v-13l-1 -36v0v-48v0v0l-1 -48l-1 -49v-48l-1 -50v-7l221 -240
c50 82 52 208 52 232v5v1v289zM82 608l23 23l58 63c7 21 14 38 21 51l-16 -18l-76 -81c-3 -12 -7 -25 -10 -38zM68 241v-31l65 69l1 32zM135 407l-22 -23l-45 -48v-30l66 70zM147 626c3 16 6 31 10 44l-39 -41l-40 -42l-6 -42zM71 526c-1 -11 -2 -22 -2 -33l61 66l10 11
c1 12 3 25 4 36zM68 458v-10l3 2l66 71c0 11 1 21 2 31l-71 -76v-18zM68 431v-30l68 73v30l-21 -22zM68 385v-33l33 35l34 37l1 33zM68 289v-31l66 70v32l-30 -33zM68 167v-5l33 35l32 35v30l-39 -42l-26 -27v-26zM69 146c0 -8 1 -18 2 -31l56 61l5 5v34l-17 -20zM72 100
c1 -10 2 -19 4 -29l56 61v32zM78 57c2 -8 3 -15 5 -23l52 56c-1 9 -2 17 -2 26zM136 75l-50 -54c2 -8 4 -17 7 -24l46 49c-1 9 -2 19 -3 29zM204 783c-45 -14 -79 -51 -103 -110l100 107zM140 31l-43 -47c3 -7 5 -14 8 -20l39 42c-1 8 -2 16 -4 25zM147 -8l-37 -39
c4 -8 8 -15 12 -21l18 19l12 14c-2 8 -4 18 -5 27zM149 -55l-21 -23c5 -7 9 -13 15 -18l17 18l4 4c-3 8 -6 17 -8 26zM166 -88l-16 -17l15 -12l12 13c-3 6 -6 12 -9 19zM174 -123c8 -5 17 -9 26 -12c-6 6 -12 13 -17 21l-6 -6zM249 -141c49 2 84 27 109 63l-215 234
c0 -7 0 -16 1 -26c0 -14 2 -28 2 -42v0v0c1 -15 2 -29 4 -44c2 -13 4 -27 6 -39v0v0c2 -14 5 -28 8 -40v0c4 -14 7 -27 12 -38c4 -11 8 -20 13 -29v0c15 -26 33 -39 54 -39h1h5z" />
    <glyph glyph-name="R" unicode="R" horiz-adv-x="517" 
d="M301 410c67 -34 148 -109 148 -266v-338c0 -3 -3 -6 -6 -6c-4 0 -6 3 -6 6v338c0 121 -48 207 -141 256c-57 29 -115 35 -135 36v-45v-52v-51v-49v-53v-51v-49v-52v-51v-49v-49v-51v-27c0 -4 -3 -6 -6 -6h-27h-50h-2c-3 0 -6 2 -6 6v47v49v51v52v49v51v53v49v51v52v49v51
v49v49v51v53v49v51v51v29c0 3 3 6 6 6h28h51h1c22 -1 85 -7 129 -50c31 -30 47 -72 47 -124c0 -120 -87 -164 -140 -180c28 -4 68 -14 109 -35zM320 625c0 49 -14 88 -43 115c-38 37 -92 45 -116 47v-45v-49v-53v-51v-49v-49v-42c34 6 159 35 159 176zM149 446v31l-67 -68
v-34l66 66l-1 1c0 2 1 3 2 4zM149 526l-67 -68v-32l67 67v33zM149 575l-67 -68v-32l67 68v32zM149 626l-67 -68v-34l67 68v34zM149 678l-67 -68v-35l67 67v36zM149 727l-67 -68v-32l67 68v32zM149 778l-67 -68v-34l67 68v34zM82 326l67 68v32l-67 -68v-32zM82 273l67 68v36
l-67 -68v-36zM82 222l67 68v34l-67 -68v-34zM82 173l67 68v32l-67 -68v-32zM82 121l67 67v36l-67 -68v-35zM82 70l67 68v34l-67 -68v-34zM82 21l67 68v32l-67 -68v-32zM82 -32l67 68v36l-67 -68v-36zM82 -83l67 68v34l-67 -68v-34zM82 -132l67 68v32l-67 -68v-32zM82 -181
l25 25l42 43v32l-67 -68v-32zM82 727l59 60h-34l-14 -14l-11 -11v-35zM82 787v-8l8 8h-8zM149 -130l-57 -57h34l13 13l10 10v34zM149 -187v6l-6 -6h6z" />
    <glyph glyph-name="S" unicode="S" horiz-adv-x="457" 
d="M427 175c2 -22 1 -36 1 -37v-10v0c0 -11 0 -27 -2 -48c-1 -19 -4 -38 -7 -57c-4 -25 -9 -49 -16 -71c-28 -89 -76 -139 -141 -150c-9 -1 -18 -2 -27 -2c-43 0 -80 15 -110 46c-89 90 -86 282 -86 290c0 3 3 6 6 6v0c3 0 6 -3 6 -6c0 -2 -3 -195 82 -282
c28 -28 62 -44 102 -42h2c10 0 19 3 27 8v0c10 6 19 16 27 29c12 20 22 48 29 83c4 18 7 37 10 58c1 16 3 33 4 50v0v0c0 15 2 32 2 50v0v0c0 16 1 33 1 49v4v0v0c0 17 0 35 -1 51v0c0 16 -1 32 -2 46c-1 17 -2 33 -4 48c-1 15 -3 29 -5 41v0c-3 15 -6 29 -9 40
c-4 15 -9 28 -15 37c-2 4 -4 7 -6 9l-3 3c-17 8 -36 12 -61 16c-10 1 -21 2 -31 4c-13 3 -25 7 -37 12v0c-12 5 -23 11 -33 18c-9 7 -18 15 -25 23c-7 9 -14 18 -20 28v0c-6 11 -11 24 -15 37c-6 18 -8 35 -8 46v0c0 12 -1 20 -1 20s0 13 4 32v0c8 44 37 121 129 139
c13 2 27 4 42 4c2 0 3 0 5 -1h2v0c9 0 16 -1 22 -2v0c95 -15 138 -100 138 -172c0 -4 -2 -6 -6 -6c-3 0 -6 2 -6 6c0 67 -40 146 -127 161l-22 1h-1h-2c-1 0 -50 -6 -77 -88v0c-6 -20 -11 -42 -13 -67v0v0c-1 -10 -2 -21 -3 -33v-20v0v0c0 -15 2 -29 4 -42v0
c3 -13 7 -24 11 -35v0c5 -11 12 -20 19 -28c8 -8 16 -15 26 -19c13 -5 20 -6 20 -6l7 -1v0c26 -4 46 -8 65 -17v0c5 -2 10 -5 16 -9v0c11 -7 21 -15 30 -24c8 -8 16 -17 23 -27c7 -9 13 -19 19 -29c5 -11 11 -23 16 -36v0c4 -12 8 -24 11 -37v0c4 -14 7 -29 9 -44v0v0
c3 -15 4 -31 5 -47zM164 462l4 5c-5 6 -10 12 -13 20l-12 -13c6 -4 14 -8 21 -12zM110 504l9 10l19 21c-1 8 -2 17 -3 26l-37 -40c3 -6 7 -11 12 -17zM137 632c2 16 4 30 7 44l-70 -76c0 -8 2 -19 5 -31zM151 701c15 45 37 69 55 82c-2 -1 -5 -1 -8 -1l-122 -132
c-3 -16 -3 -28 -3 -28v-5l46 50zM177 776c-58 -19 -84 -65 -95 -102l27 29zM135 613l-53 -57c3 -8 6 -16 10 -24l42 46v19c1 5 1 11 1 16zM141 521l-24 -26c5 -5 11 -10 16 -14l16 17c-3 7 -6 15 -8 23zM316 403c3 -6 6 -13 8 -20l8 8c-5 4 -10 9 -16 12zM340 383l-12 -14
c2 -8 4 -17 6 -26l21 22zM337 328c1 -8 2 -17 4 -26l32 35c-3 6 -7 13 -11 18zM348 209l18 20l35 37c-2 8 -5 16 -7 24l-48 -51c1 -10 1 -20 2 -30zM416 160l-18 -20l-50 -53c0 -11 -1 -21 -1 -32l70 75v8s0 9 -1 22zM348 192c0 -11 1 -23 1 -34l61 65c-2 10 -4 20 -6 29
l-14 -15zM349 140v-1v-34l66 72c0 10 -1 21 -3 31l-23 -24zM415 83c0 11 1 21 1 29l-70 -75c-1 -10 -2 -21 -3 -30l37 39zM336 -50l72 77c2 12 4 24 5 37l-72 -77c-1 -13 -3 -25 -5 -37zM348 258l41 44c-3 8 -6 16 -10 24l-27 -29l-10 -10c1 -10 2 -21 3 -32zM284 -180
c42 15 75 52 98 109l-81 -87c-5 -8 -11 -16 -17 -22zM392 -43c5 15 9 31 12 49l-28 -31l-44 -47c-4 -19 -9 -36 -14 -51z" />
    <glyph glyph-name="T" unicode="T" horiz-adv-x="369" 
d="M361 800c3 0 6 -3 6 -6s-3 -6 -6 -6h-150v-49v-49v-52v-51v-49v-49v-51v-49v-52v-51v-49v-52v-51v-49v-53v-50v-49v-49v-51v-27c0 -3 -3 -6 -6 -6h-27h-50h-2c-4 0 -6 3 -6 6v47v49v51v52v49v51v52v49v51v53v48v51v49v49v51v52v49v51v52v26h-136c-3 0 -6 3 -6 6s3 6 6 6
h377zM199 -131l-34 -33l-23 -24h34l23 23v34zM132 776l4 5l4 3h-8v-8zM191 784h-34l-25 -25v-34zM132 674l67 67v34l-67 -67v-34zM132 625l67 68v32l-67 -68v-32zM132 572l67 68v36l-67 -68v-36zM132 522l67 67v34l-67 -67v-34zM132 473l67 67v32l-67 -67v-32zM132 424
l67 67v33l-67 -68v-32zM132 373l67 68v34l-67 -68v-34zM132 324l67 68v32l-67 -68v-32zM132 271l67 68v36l-67 -68v-36zM132 221l67 67v34l-67 -67v-34zM132 172l67 68v32l-67 -68v-32zM132 119l67 68v36l-67 -68v-36zM132 68l67 68v34l-67 -68v-34zM132 20l67 67v32
l-67 -67v-32zM132 -33l67 68v36l-67 -68v-36zM132 -84l67 68v34l-67 -68v-34zM132 -133l67 68v32l-67 -68v-32zM132 -182l67 68v32l-67 -67v-33zM199 -188v7l-7 -7h7z" />
    <glyph glyph-name="U" unicode="U" horiz-adv-x="503" 
d="M445 158c0 0 6 -86 -14 -172c-26 -116 -83 -180 -166 -185v-1c-3 0 -6 3 -6 6c0 -3 -3 -6 -6 -6c-26 0 -50 5 -71 16c-10 5 -20 11 -29 19c-9 6 -16 14 -24 23c-7 9 -15 20 -21 31v0c-6 11 -12 23 -17 36c-5 11 -9 23 -12 36c-4 12 -7 26 -10 40v0c-3 13 -5 27 -7 41v0v0
c-2 15 -3 32 -4 48c-1 21 -1 40 -1 51v0v0c0 11 1 18 1 18v32v51v50v49v52v48v48v50v55v47v51v52v46c0 4 2 6 5 6h44h28c3 0 5 -2 5 -6v-22v-51v-47v-54v-51v-47v-49v-51v-50v-50v-50v-50v-52v-8c0 -14 1 -29 1 -43c1 -15 1 -30 2 -44v0c1 -16 3 -32 5 -46v0
c1 -15 3 -29 6 -42c2 -15 5 -29 9 -42c4 -14 8 -27 12 -39c4 -11 9 -21 14 -31v0c6 -10 12 -20 18 -28v0c24 -29 46 -31 46 -31c3 0 6 -3 6 -6c0 4 2 6 5 6c188 13 170 343 170 346v636c0 3 2 6 6 6c3 0 5 -3 5 -6v-636zM134 -129l27 28l2 2l-9 27l-3 -3l-31 -34
c5 -7 9 -14 14 -20zM98 -62l5 4l39 42c-2 9 -3 17 -5 27l-46 -50c2 -8 5 -16 7 -23zM131 72c0 9 -1 19 -1 28l-55 -60c1 -8 2 -17 3 -25zM129 117v34l-41 -44l-18 -19c1 -11 2 -22 3 -32zM69 240v-34l60 64v33zM69 339v-32l60 64v32zM69 591v-37l60 64v37zM69 689v-33l60 63
v34zM69 638v-29l60 63v30zM69 537v-33l60 63v34zM69 456l53 56l7 8v30l-60 -64v-30zM69 439v-31l60 64v31l-53 -56zM69 390v-34l60 64v34zM69 290v-33l60 64v32zM69 158v-2l34 37l26 28v32l-60 -64v-31zM69 138v-33l60 63v35l-26 -28zM87 -26l25 26l24 26c-2 10 -3 20 -3 30
l-52 -55zM144 -30l-41 -44c4 -9 7 -16 11 -24l37 39c-3 9 -5 19 -7 29zM129 770v15h-20l-40 -43v-35zM93 785h-24v-26zM142 -139c4 -5 9 -9 14 -14l21 23c-4 6 -7 12 -9 19zM181 -143l-16 -17c6 -5 12 -8 19 -12l11 12c-4 6 -9 12 -12 19zM195 -177c7 -3 15 -6 24 -7
c-6 4 -11 9 -17 15z" />
    <glyph glyph-name="V" unicode="V" horiz-adv-x="479" 
d="M416 793l-184 -986c0 -1 -1 -2 -2 -3c-1 -2 -3 -4 -5 -4v0c-3 0 -6 2 -6 5l-6 23l-9 42l-9 43l-8 35l-9 38l-9 43l-9 42l-9 39l-9 41l-9 38l-9 42l-9 42l-9 40l-9 41l-9 40l-9 39l-9 42l-9 39l-8 38l-9 41l-10 44l-8 38l-10 41l-9 42l-7 31c0 2 0 4 1 5c1 2 3 3 5 3h36
h45c2 0 5 -2 5 -5l1 -4l9 -41l9 -38l9 -43l9 -42l8 -38l9 -39l9 -42l9 -40l9 -40l9 -41l8 -39l10 -43l9 -41l8 -38l9 -42l9 -39l9 -42l9 -43l7 -33l145 771c0 3 4 5 7 5c3 -1 5 -4 4 -7zM26 729l41 45l10 11h-32l-26 -27zM29 715l6 -27l40 43l15 16l-6 28l-25 -28zM38 674
l5 -24l55 59l-5 24l-31 -33zM53 607l54 58l1 1l-7 29l-55 -59zM125 587l-5 24l-30 -33l-25 -26l5 -24zM62 566l33 35l22 24l-6 27l-55 -60zM73 514l6 -26l55 60l-6 25l-48 -52zM82 474l6 -27l55 59l-6 27zM91 433l6 -26l4 4l51 55l-6 26zM100 393l6 -26l54 59l-5 26l-22 -24
zM109 353l6 -27l5 5l49 54l-5 27zM197 261l-6 27l-55 -58l6 -27zM118 312l6 -25l20 21l34 37l-5 26l-23 -24zM127 272l6 -28l54 59l-6 28zM146 189l5 -24l54 58l-5 24zM154 151l6 -27l54 57l-6 28l-5 -6zM163 110l6 -25l54 57l-6 25l-42 -45zM178 42l1 1l53 57l-6 28
l-54 -57zM241 57l-6 29l-40 -43l-14 -15l7 -28zM196 -38l27 29l26 28l-5 24l-53 -57zM199 -52l5 -21l1 2l45 47l4 23l-1 6zM207 -87l6 -30l25 26l8 45zM216 -130l7 -28l2 2l1 1l8 43zM28 785h-15l3 -13h1z" />
    <glyph glyph-name="W" unicode="W" horiz-adv-x="514" 
d="M443 800c3 0 6 -3 6 -6v-988c0 -3 -2 -5 -5 -6h-1c-2 0 -5 1 -5 4l-145 337l-137 -336v0c0 -1 -1 -2 -1 -2c-1 -1 -1 -1 -2 -1v-1h-3v0h-28h-50c-3 0 -6 3 -6 6v0v0v51v49v52v51v48v49v51v48v53v50v49v52v51v49v52v51v48v49v51v27c0 3 3 6 6 6h26h50h2c4 0 6 -3 6 -6v-47
v-49v-50v-53v-49v-50v-52v-49v-51v-52v-49v-50v-49v-49v-51v-52v-49v-50v-50l132 321c1 2 3 4 5 4v0c2 0 5 -1 5 -4l139 -323v959c0 3 3 6 6 6zM78 758v-33l56 57h-33l-13 -14zM145 -77l-67 -67v-34l67 67v34zM145 -28l-67 -68v-32l67 68v32zM145 24l-67 -67v-36l67 67v36z
M145 75l-67 -68v-34l67 68v34zM145 123l-67 -67v-32l67 67v32zM145 172l-67 -67v-32l67 67v32zM145 223l-67 -68v-34l67 68v34zM145 272l-67 -68v-32l67 68v32zM145 324l-67 -68v-35l67 67v36zM145 375l-67 -68v-34l67 68v34zM145 423l-67 -67v-32l67 67v32zM145 476
l-67 -68v-36l67 68v36zM145 526l-67 -67v-34l67 67v34zM145 575l-67 -68v-32l67 68v32zM145 627l-67 -67v-36l67 68v35zM145 678l-67 -68v-34l67 68v34zM145 726l-67 -67v-32l67 68v31zM145 775l-67 -67v-32l67 67v32zM145 -179l-9 -8h9v8zM78 782v-7l6 7h-6zM126 -146
l-41 -41h35l13 14l12 11v34z" />
    <glyph glyph-name="X" unicode="X" horiz-adv-x="599" 
d="M266 268l8 -11l-197 -451c-1 -2 -3 -3 -5 -3h-2c-3 2 -5 5 -4 8zM413 114l-58 -61l8 -23l58 62zM361 13l-1 1c-2 0 -4 1 -4 3l-13 35c-1 2 0 5 1 6l67 71c1 2 3 3 5 2c2 0 4 -2 4 -4l13 -34c1 -2 1 -5 -1 -6l-66 -72c-2 -1 -3 -2 -5 -2zM332 326l-56 -61l8 -21l56 61z
M282 227h-1c-2 1 -4 2 -5 4l-12 33c-1 2 0 5 1 6l65 71c2 1 4 2 6 1c2 0 3 -1 4 -3l13 -34c0 -2 0 -4 -2 -6l-65 -70c-1 -1 -2 -2 -4 -2zM400 148l-57 -62l8 -21l57 62zM348 48h-1c-2 1 -3 2 -4 4l-13 33c0 3 0 5 2 6l66 72c1 1 3 2 5 1c2 0 4 -1 5 -3l12 -34
c1 -2 1 -4 -1 -6l-66 -71c-2 -1 -3 -2 -5 -2zM372 222l-57 -61l9 -25l57 61zM322 119h-1c-2 1 -4 2 -5 4l-13 37c-1 2 -1 5 1 6l66 71c1 1 3 2 5 2c2 -1 4 -2 4 -4l15 -37c0 -2 0 -4 -2 -6l-66 -71c-1 -1 -2 -2 -4 -2zM345 292l-56 -60l9 -24l56 60zM295 191h-1
c-2 0 -3 2 -4 4l-14 36c0 2 0 4 2 6l65 70c1 2 3 3 5 2c2 0 4 -2 5 -4l13 -36c1 -2 1 -4 -1 -6l-65 -70c-1 -2 -3 -2 -5 -2zM386 185l-57 -61l9 -26l57 62zM336 82h-1c-2 0 -4 2 -5 3l-14 38c0 2 0 5 2 6l66 71c1 1 3 2 5 2c2 -1 4 -2 5 -4l14 -37c0 -2 0 -5 -2 -6l-66 -72
c-1 -1 -2 -1 -4 -1zM439 46l-58 -62l9 -25l58 62zM388 -58h-1c-2 1 -4 2 -5 4l-14 37c0 2 0 5 2 6l66 72c2 1 4 2 6 2c2 -1 4 -2 4 -4l14 -37c1 -2 1 -5 -1 -6l-67 -72c-1 -1 -3 -2 -4 -2zM426 80l-58 -62l8 -22l58 62zM374 -21l-1 1c-2 0 -4 1 -5 3l-12 34c-1 2 -1 5 1 6
l67 72c1 1 3 2 5 1c2 0 4 -1 4 -3l13 -34c1 -2 1 -4 -1 -6l-67 -72c-1 -1 -2 -2 -4 -2zM536 -200h-8c-2 0 -4 1 -5 4c-1 2 -1 4 1 6l6 6c1 1 3 2 5 2c2 -1 4 -2 4 -4l3 -6c0 -2 0 -4 -1 -5c-1 -2 -3 -3 -5 -3zM453 9l-58 -62l9 -25l58 62zM402 -95h-2c-2 0 -3 2 -4 4l-14 37
c0 2 0 4 2 6l67 72c1 1 3 2 5 2c2 -1 4 -2 4 -4l14 -37c1 -2 1 -5 -1 -6l-67 -72c-1 -2 -3 -2 -4 -2zM506 -132l-52 -56h26l34 36zM482 -200h-41c-3 0 -5 2 -6 4s0 5 1 6l68 73c2 1 4 2 6 2c2 -1 3 -2 4 -4l12 -32c1 -2 0 -5 -1 -6l-38 -41c-1 -1 -3 -2 -5 -2zM518 -164
l-22 -24h30l1 1zM528 -200h-46c-2 0 -4 1 -5 4c-1 2 -1 4 1 6l38 41c2 1 4 2 6 2c2 -1 3 -2 4 -4l13 -35c1 -2 1 -4 -1 -6l-6 -6c-1 -1 -2 -2 -4 -2zM467 -28l-59 -63l9 -23l59 62zM415 -131h-1c-2 0 -4 2 -5 4l-13 36c-1 2 0 4 1 6l68 72c1 1 3 2 5 2c2 -1 4 -2 4 -4
l14 -36c1 -2 0 -4 -1 -6l-68 -72c-1 -2 -2 -2 -4 -2zM480 -64l-58 -63l8 -23l59 63zM428 -167h-1c-2 1 -4 2 -4 4l-14 36c0 2 0 4 2 6l67 72c2 1 4 2 6 2c2 -1 3 -2 4 -4l14 -35c0 -2 0 -5 -2 -6l-67 -73c-2 -1 -3 -2 -5 -2zM494 -99l-59 -63l8 -21l59 63zM440 -200h-1
c-2 1 -3 2 -4 4l-12 33c-1 2 -1 4 1 6l68 73c1 1 3 2 5 1c2 0 4 -1 5 -3l12 -33c1 -2 0 -4 -1 -6l-68 -73c-1 -1 -3 -2 -5 -2zM359 256l-57 -61l8 -22l57 61zM308 156c0 0 -1 0 -1 1c-2 0 -4 1 -4 3l-13 35c-1 2 0 4 1 6l66 70c1 1 3 2 5 2c2 -1 4 -2 4 -4l13 -34
c1 -2 1 -5 -1 -6l-66 -71c-1 -1 -2 -2 -4 -2zM184 717l-54 -57l10 -27l54 58zM137 616h-1c-2 1 -3 2 -4 4l-15 39c0 2 0 5 2 6l62 67c2 2 4 2 6 2s4 -2 4 -4l15 -38c1 -2 0 -4 -1 -6l-63 -68c-1 -1 -3 -2 -5 -2zM212 643l-55 -58l8 -21l55 58zM163 547h-1c-2 0 -4 2 -4 4
l-13 33c-1 3 0 5 1 6l64 68c1 2 3 2 5 2s4 -2 4 -4l13 -33c1 -2 0 -4 -1 -6l-63 -68c-2 -2 -3 -2 -5 -2zM171 750l-54 -57l8 -21l54 58zM123 655h-1c-2 1 -4 2 -5 4l-12 33c-1 2 0 5 1 6l63 67c1 2 3 3 5 2c2 0 4 -2 5 -4l12 -33c1 -2 1 -4 -1 -6l-63 -67c-1 -1 -2 -2 -4 -2
zM198 679l-54 -58l9 -24l54 59zM151 581h-1c-2 0 -4 2 -5 3l-13 36c-1 2 0 4 1 6l63 68c1 2 3 2 5 2c2 -1 4 -2 5 -4l13 -36c1 -2 1 -4 -1 -6l-63 -68c-1 -1 -3 -1 -4 -1zM94 788h-12l3 -9zM83 763h-1c-2 0 -4 2 -4 3l-10 26c-1 2 0 4 1 5c1 2 3 3 5 3h33c3 0 5 -1 6 -4
c1 -2 0 -4 -2 -6l-24 -26c-1 -1 -2 -1 -4 -1zM157 787l-53 -58l9 -24l53 58zM111 688h-2c-2 1 -3 2 -4 4l-13 37c-1 2 -1 4 1 6l59 63c1 1 3 2 4 2h5c2 0 4 -2 5 -4l13 -33c0 -2 0 -4 -2 -6l-62 -67c-1 -1 -3 -2 -4 -2zM110 788l-20 -21l9 -25l44 46h-33zM97 725h-1
c-2 0 -4 2 -4 4l-14 37c-1 3 -1 5 1 6l24 26c1 1 3 2 4 2h49c3 0 5 -1 6 -4c1 -2 0 -4 -1 -6l-60 -63c-1 -2 -2 -2 -4 -2zM305 399l-56 -60l9 -25l56 60zM256 297h-1c-2 1 -4 2 -5 4l-13 37c-1 2 -1 5 1 6l64 70c2 1 4 2 6 2c2 -1 3 -2 4 -4l14 -37c1 -2 1 -5 -1 -6l-65 -70
c-1 -1 -2 -2 -4 -2zM291 434l-55 -60l8 -23l56 60zM242 334h-1c-2 1 -4 2 -4 4l-13 35c-1 2 -1 5 1 6l64 70c2 1 4 2 6 1c2 0 3 -1 4 -3l13 -35c1 -2 1 -4 -1 -6l-65 -70c-1 -1 -2 -2 -4 -2zM319 362l-56 -60l9 -25l56 61zM270 260c-1 0 -1 0 -2 1c-2 0 -3 1 -4 3l-14 37
c0 2 0 4 2 6l65 70c1 1 3 2 5 2c2 -1 4 -2 4 -4l14 -36c1 -2 0 -5 -1 -6l-65 -71c-1 -1 -3 -2 -4 -2zM224 610l-54 -59l8 -22l55 59zM176 512h-1c-2 1 -4 2 -4 4l-13 35c-1 2 -1 4 1 6l63 68c2 1 4 2 6 2c2 -1 3 -2 4 -4l13 -34c1 -2 0 -5 -1 -6l-64 -69c-1 -1 -2 -2 -4 -2z
M278 469l-55 -59l8 -24l56 60zM229 369h-1c-2 1 -4 2 -4 4l-14 36c-1 2 0 5 1 6l65 69c1 2 3 3 5 2c2 0 4 -2 4 -3l14 -36c1 -2 0 -5 -1 -6l-65 -70c-1 -1 -2 -2 -4 -2zM237 576l-54 -59l9 -24l55 59zM190 476h-2c-2 0 -3 2 -4 4l-13 36c-1 2 -1 5 1 6l63 69c2 1 4 2 6 1
c2 0 3 -1 4 -3l14 -37c1 -2 0 -4 -1 -6l-64 -68c-1 -2 -3 -2 -4 -2zM251 539l-55 -59l9 -22l55 59zM203 441h-2c-2 0 -3 2 -4 4l-13 35c-1 2 0 4 1 6l64 68c1 2 3 2 5 2s4 -2 5 -4l13 -35c1 -2 0 -4 -1 -6l-64 -68c-1 -2 -3 -2 -4 -2zM264 504l-55 -59l9 -23l55 60zM216 405
h-1c-2 1 -4 2 -5 4l-13 36c-1 2 0 4 1 6l64 68c2 2 4 3 6 2c2 0 3 -2 4 -4l13 -34c1 -3 1 -5 -1 -7l-64 -69c-1 -1 -3 -2 -4 -2zM321 364l183 418c1 3 0 7 -3 8s-6 0 -8 -3l-176 -403z" />
    <glyph glyph-name="Y" unicode="Y" horiz-adv-x="440" 
d="M413 800c3 -2 4 -5 3 -8l-377 -988c-1 -3 -3 -4 -5 -4h-3c-3 2 -4 5 -3 8l185 484v0l-7 17l-13 35l-14 37v0l-12 33v0l-14 37l-14 37l-13 35l-14 36l-13 36v0l-13 35v0l-14 37l-13 34l-12 34l-14 36l-7 19c-1 2 0 4 1 6c1 1 3 2 4 2h25h47h15c2 0 5 -1 5 -4l9 -22l13 -35
l13 -37l13 -35l13 -35l14 -37l13 -35l14 -38l13 -36l13 -34l11 -30l143 376c1 3 5 5 8 4zM187 394l34 37l18 18l-8 22l-3 -3l-49 -53zM165 451l10 -24l51 56l-9 24zM169 526l30 32l-9 22l-52 -56l9 -23zM134 536l30 33l22 24l-9 23l-52 -56zM123 625l36 39l-9 23l-16 -17
l-36 -39l9 -23zM119 771l-5 15h-8l-47 -50l8 -22zM59 786l-14 -14l9 -24l36 38h-31zM124 759l-52 -57l8 -22l42 46l10 11zM127 713l-42 -45l9 -25l8 9l44 48l-9 24zM139 625l-28 -29l9 -23l52 56l-8 23zM190 531l-39 -42l10 -25l42 45l10 11l-10 25zM205 396l-13 -15l9 -24
l51 55l-9 25zM250 393l-44 -48l8 -22l15 16z" />
    <glyph glyph-name="Z" unicode="Z" horiz-adv-x="515" 
d="M461 -188c4 0 6 -3 6 -6s-2 -6 -6 -6h-435h-11v0h-1h-7c-2 0 -3 1 -5 2l-1 1c-1 2 -1 4 -1 6l18 46l19 51l20 52l20 55l19 51l20 53l21 54l19 51l19 53l21 55v0l19 51v0l20 52l19 51l19 51l20 53l20 55l20 51l19 52v0l15 41h-285c-4 0 -6 2 -6 6c0 3 2 5 6 5h294v0v0h9
h76c3 0 6 -2 6 -5c0 -2 -1 -3 -1 -4v0l-17 -44v0l-19 -51l-21 -55v0l-20 -53l-19 -51l-19 -51l-20 -52l-19 -51l-20 -55l-20 -53l-19 -51l-21 -54l-20 -53l-19 -51l-20 -55v0l-20 -52v0l-19 -51l-19 -51v0l-16 -43h362zM98 -156l-61 -32h49zM106 58l-12 -34l27 14l62 32
l13 35l-27 -15zM261 280l14 36l-89 -47l-14 -36l27 14zM399 645l14 38l-89 -46l-15 -39l17 9zM343 687l-13 -34l23 12l66 35l13 34l-27 -14zM385 787h-5l-11 -30l58 30h-42zM363 740l-14 -36l89 47l14 34zM303 582l-13 -36l89 47l14 36zM283 529l-12 -34l89 47l13 34
l-31 -16zM264 478l-13 -34l90 47l13 34l-62 -32zM245 427l-13 -36l89 47l13 36l-22 -12zM225 374l-12 -34l89 47l13 34zM206 323l-14 -38l89 47l15 38zM166 216l-13 -34l89 47l13 34zM147 165l-14 -38l89 47l14 38zM126 111l-13 -37l89 47l14 36l-66 -34zM87 7l-14 -38
l89 47l15 38zM67 -48l-14 -36l90 47l13 36zM47 -101l-13 -34l90 47l12 34zM28 -151l-13 -34l89 46l13 34z" />
    <glyph glyph-name="bracketleft" unicode="[" horiz-adv-x="63" 
 />
    <glyph glyph-name="backslash" unicode="\" 
 />
    <glyph glyph-name="quoteleft" unicode="&#x2018;" horiz-adv-x="63" 
 />
    <glyph glyph-name="a" unicode="a" horiz-adv-x="63" 
 />
    <glyph glyph-name="b" unicode="b" horiz-adv-x="63" 
 />
    <glyph glyph-name="d" unicode="d" horiz-adv-x="63" 
 />
    <glyph glyph-name="e" unicode="e" horiz-adv-x="63" 
 />
    <glyph glyph-name="f" unicode="f" 
 />
    <glyph glyph-name="g" unicode="g" horiz-adv-x="63" 
 />
    <glyph glyph-name="i" unicode="i" horiz-adv-x="63" 
 />
    <glyph glyph-name="m" unicode="m" 
 />
    <glyph glyph-name="n" unicode="n" horiz-adv-x="63" 
 />
    <glyph glyph-name="o" unicode="o" horiz-adv-x="63" 
 />
    <glyph glyph-name="p" unicode="p" 
 />
    <glyph glyph-name="q" unicode="q" 
 />
    <glyph glyph-name="r" unicode="r" horiz-adv-x="63" 
 />
    <glyph glyph-name="s" unicode="s" horiz-adv-x="63" 
 />
    <glyph glyph-name="t" unicode="t" 
 />
    <glyph glyph-name="u" unicode="u" 
 />
    <glyph glyph-name="yen" unicode="&#xa5;" 
 />
    <glyph glyph-name="quotedblleft" unicode="&#x201c;" horiz-adv-x="63" 
 />
    <glyph glyph-name="dagger" unicode="&#x2020;" 
 />
    <glyph glyph-name="quotedblright" unicode="&#x201d;" horiz-adv-x="63" 
 />
    <glyph glyph-name="grave" unicode="`" horiz-adv-x="109" 
d="M83 841l-61 61c-2 1 -2 5 0 7c2 1 5 1 7 0l61 -61c2 -2 2 -5 0 -7c-1 -1 -3 -2 -4 -2s-2 1 -3 2z" />
    <glyph glyph-name="acute" unicode="&#xb4;" horiz-adv-x="116" 
d="M50 869c-1 0 -2 1 -3 2c-2 2 -2 5 0 7l60 61c2 1 5 1 7 0c2 -2 2 -6 0 -7l-60 -61c-1 -1 -3 -2 -4 -2z" />
    <glyph glyph-name="circumflex" unicode="&#x2c6;" horiz-adv-x="115" 
d="M9 860c-2 -2 -6 -2 -8 0s-1 5 1 7l52 52c1 0 2 1 4 1c1 0 2 -1 3 -2l49 -51c1 -2 1 -5 -1 -7c-1 -1 -2 -2 -3 -2s-3 1 -4 2l-44 48z" />
    <glyph glyph-name="tilde" unicode="&#x2dc;" horiz-adv-x="129" 
d="M13 845c-7 0 -13 5 -13 12s6 13 13 13c6 0 12 -6 12 -13s-6 -12 -12 -12zM116 845c-7 0 -12 5 -12 12s5 13 12 13s13 -6 13 -13s-6 -12 -13 -12z" />
    <glyph glyph-name="oslash" unicode="&#xf8;" 
 />
    <glyph glyph-name="oe" unicode="&#x153;" 
 />
    <glyph glyph-name="registered" unicode="&#xae;" 
 />
    <glyph glyph-name="Aacute" unicode="&#xc1;" horiz-adv-x="559" 
d="M474 431v0v0v-625c0 -3 -3 -6 -6 -6c-4 0 -6 3 -6 6v619h-293v-20v-49v-50v-51v-49v-53v-51v-47v-51v-49v-52v-53v-44c0 -3 -3 -6 -6 -6h-41h-30c-4 0 -6 3 -6 6v21v52v48v51v47v52v52v50v50v50v50v51v49v9s-1 15 -1 38c0 18 1 36 3 54c2 22 5 44 9 64c4 24 10 47 18 67
v0c25 71 66 114 121 129c14 4 29 6 45 6h3h2c44 -1 81 -18 111 -50c88 -97 77 -300 77 -308v-7zM216 770c-32 -15 -58 -43 -77 -83zM126 656c-5 -14 -10 -28 -13 -43l79 84c17 46 37 71 54 84c-1 -1 -3 -1 -5 -2zM163 561c1 14 3 27 5 39l-69 -74c-1 -11 -1 -23 -2 -35z
M97 378v-34l60 63v31v4l-19 -21zM157 308v33l-60 -64v-33zM97 144l60 64v32l-60 -64v-32zM157 156v35l-60 -64v-35zM97 -106l9 10l51 54v31l-60 -64v-31zM157 -60l-9 -9l-51 -54v-35l60 63v35zM157 6v34l-60 -64v-34zM157 57v30l-60 -64v-30zM157 104v34l-60 -63v-35z
M157 257v34l-60 -64v-33zM157 358v32l-60 -64v-32zM158 491l-58 -62l-3 -3v-31l60 64c0 11 0 22 1 32zM159 510c0 11 1 21 2 32l-64 -69v-29zM171 622c4 17 7 33 12 48l-75 -80c-3 -14 -5 -29 -7 -44zM97 -175v-13h22l38 40v36zM136 -188h21v23zM169 437h293v1
c0 2 11 207 -74 300c-27 30 -62 45 -102 46c-1 0 -2 1 -2 1c-1 0 -2 0 -3 -1c0 0 -46 -3 -79 -93c-8 -21 -14 -46 -19 -73c-4 -19 -7 -39 -9 -60v0c-2 -16 -3 -33 -4 -51c-1 -16 -1 -33 -1 -50v0v0v-19v-1zM290 879c-1 0 -2 1 -3 2c-2 2 -2 5 0 7l60 61c2 1 5 1 7 0
c2 -2 2 -6 0 -7l-60 -61c-1 -1 -3 -2 -4 -2z" />
    <glyph glyph-name="Acircumflex" unicode="&#xc2;" horiz-adv-x="559" 
d="M474 431v0v0v-625c0 -3 -3 -6 -6 -6c-4 0 -6 3 -6 6v619h-293v-20v-49v-50v-51v-49v-53v-51v-47v-51v-49v-52v-53v-44c0 -3 -3 -6 -6 -6h-41h-30c-4 0 -6 3 -6 6v21v52v48v51v47v52v52v50v50v50v50v51v49v9s-1 15 -1 38c0 18 1 36 3 54c2 22 5 44 9 64c4 24 10 47 18 67
v0c25 71 66 114 121 129c14 4 29 6 45 6h3h2c44 -1 81 -18 111 -50c88 -97 77 -300 77 -308v-7zM216 770c-32 -15 -58 -43 -77 -83zM126 656c-5 -14 -10 -28 -13 -43l79 84c17 46 37 71 54 84c-1 -1 -3 -1 -5 -2zM163 561c1 14 3 27 5 39l-69 -74c-1 -11 -1 -23 -2 -35z
M97 378v-34l60 63v31v4l-19 -21zM157 308v33l-60 -64v-33zM97 144l60 64v32l-60 -64v-32zM157 156v35l-60 -64v-35zM97 -106l9 10l51 54v31l-60 -64v-31zM157 -60l-9 -9l-51 -54v-35l60 63v35zM157 6v34l-60 -64v-34zM157 57v30l-60 -64v-30zM157 104v34l-60 -63v-35z
M157 257v34l-60 -64v-33zM157 358v32l-60 -64v-32zM158 491l-58 -62l-3 -3v-31l60 64c0 11 0 22 1 32zM159 510c0 11 1 21 2 32l-64 -69v-29zM171 622c4 17 7 33 12 48l-75 -80c-3 -14 -5 -29 -7 -44zM97 -175v-13h22l38 40v36zM136 -188h21v23zM169 437h293v1
c0 2 11 207 -74 300c-27 30 -62 45 -102 46c-1 0 -2 1 -2 1c-1 0 -2 0 -3 -1c0 0 -46 -3 -79 -93c-8 -21 -14 -46 -19 -73c-4 -19 -7 -39 -9 -60v0c-2 -16 -3 -33 -4 -51c-1 -16 -1 -33 -1 -50v0v0v-19v-1zM234 870c-2 -2 -6 -2 -8 0s-1 5 1 7l52 52c1 0 2 1 4 1
c1 0 2 -1 3 -2l49 -51c1 -2 1 -5 -1 -7c-1 -1 -2 -2 -3 -2s-3 1 -4 2l-44 48z" />
    <glyph glyph-name="Agrave" unicode="&#xc0;" horiz-adv-x="559" 
d="M474 431v0v0v-625c0 -3 -3 -6 -6 -6c-4 0 -6 3 -6 6v619h-293v-20v-49v-50v-51v-49v-53v-51v-47v-51v-49v-52v-53v-44c0 -3 -3 -6 -6 -6h-41h-30c-4 0 -6 3 -6 6v21v52v48v51v47v52v52v50v50v50v50v51v49v9s-1 15 -1 38c0 18 1 36 3 54c2 22 5 44 9 64c4 24 10 47 18 67
v0c25 71 66 114 121 129c14 4 29 6 45 6h3h2c44 -1 81 -18 111 -50c88 -97 77 -300 77 -308v-7zM216 770c-32 -15 -58 -43 -77 -83zM126 656c-5 -14 -10 -28 -13 -43l79 84c17 46 37 71 54 84c-1 -1 -3 -1 -5 -2zM163 561c1 14 3 27 5 39l-69 -74c-1 -11 -1 -23 -2 -35z
M97 378v-34l60 63v31v4l-19 -21zM157 308v33l-60 -64v-33zM97 144l60 64v32l-60 -64v-32zM157 156v35l-60 -64v-35zM97 -106l9 10l51 54v31l-60 -64v-31zM157 -60l-9 -9l-51 -54v-35l60 63v35zM157 6v34l-60 -64v-34zM157 57v30l-60 -64v-30zM157 104v34l-60 -63v-35z
M157 257v34l-60 -64v-33zM157 358v32l-60 -64v-32zM158 491l-58 -62l-3 -3v-31l60 64c0 11 0 22 1 32zM159 510c0 11 1 21 2 32l-64 -69v-29zM171 622c4 17 7 33 12 48l-75 -80c-3 -14 -5 -29 -7 -44zM97 -175v-13h22l38 40v36zM136 -188h21v23zM169 437h293v1
c0 2 11 207 -74 300c-27 30 -62 45 -102 46c-1 0 -2 1 -2 1c-1 0 -2 0 -3 -1c0 0 -46 -3 -79 -93c-8 -21 -14 -46 -19 -73c-4 -19 -7 -39 -9 -60v0c-2 -16 -3 -33 -4 -51c-1 -16 -1 -33 -1 -50v0v0v-19v-1zM273 871l-61 61c-2 1 -2 5 0 7c2 1 5 1 7 0l61 -61c2 -2 2 -5 0 -7
c-1 -1 -3 -2 -4 -2s-2 1 -3 2z" />
    <glyph glyph-name="Atilde" unicode="&#xc3;" horiz-adv-x="559" 
d="M474 431v0v0v-625c0 -3 -3 -6 -6 -6c-4 0 -6 3 -6 6v619h-293v-20v-49v-50v-51v-49v-53v-51v-47v-51v-49v-52v-53v-44c0 -3 -3 -6 -6 -6h-41h-30c-4 0 -6 3 -6 6v21v52v48v51v47v52v52v50v50v50v50v51v49v9s-1 15 -1 38c0 18 1 36 3 54c2 22 5 44 9 64c4 24 10 47 18 67
v0c25 71 66 114 121 129c14 4 29 6 45 6h3h2c44 -1 81 -18 111 -50c88 -97 77 -300 77 -308v-7zM216 770c-32 -15 -58 -43 -77 -83zM126 656c-5 -14 -10 -28 -13 -43l79 84c17 46 37 71 54 84c-1 -1 -3 -1 -5 -2zM163 561c1 14 3 27 5 39l-69 -74c-1 -11 -1 -23 -2 -35z
M97 378v-34l60 63v31v4l-19 -21zM157 308v33l-60 -64v-33zM97 144l60 64v32l-60 -64v-32zM157 156v35l-60 -64v-35zM97 -106l9 10l51 54v31l-60 -64v-31zM157 -60l-9 -9l-51 -54v-35l60 63v35zM157 6v34l-60 -64v-34zM157 57v30l-60 -64v-30zM157 104v34l-60 -63v-35z
M157 257v34l-60 -64v-33zM157 358v32l-60 -64v-32zM158 491l-58 -62l-3 -3v-31l60 64c0 11 0 22 1 32zM159 510c0 11 1 21 2 32l-64 -69v-29zM171 622c4 17 7 33 12 48l-75 -80c-3 -14 -5 -29 -7 -44zM97 -175v-13h22l38 40v36zM136 -188h21v23zM169 437h293v1
c0 2 11 207 -74 300c-27 30 -62 45 -102 46c-1 0 -2 1 -2 1c-1 0 -2 0 -3 -1c0 0 -46 -3 -79 -93c-8 -21 -14 -46 -19 -73c-4 -19 -7 -39 -9 -60v0c-2 -16 -3 -33 -4 -51c-1 -16 -1 -33 -1 -50v0v0v-19v-1zM209 886c-2 -2 -5 -2 -7 -1c-2 2 -3 5 -1 7c1 1 14 19 36 22
c14 1 28 -3 42 -14c11 -9 22 -13 33 -11c17 3 27 19 27 19c2 2 5 3 7 1c2 -1 3 -4 1 -7c0 0 -12 -19 -33 -23h-7c-12 0 -23 4 -35 13c-11 9 -23 13 -34 12c-18 -3 -29 -18 -29 -18z" />
    <glyph glyph-name="Ccedilla" unicode="&#xc7;" horiz-adv-x="501" 
d="M446 137c0 0 2 -82 -20 -164c-29 -110 -87 -170 -167 -173v0c-2 0 -3 0 -3 1c-1 -1 -2 -1 -4 -1c-31 0 -60 8 -84 25c-9 6 -18 13 -25 21v0c-9 9 -17 19 -24 30c-7 10 -13 21 -19 33c-5 11 -9 22 -13 34v0c-5 13 -9 26 -12 39s-6 26 -8 39c-3 15 -5 30 -6 46
c-2 20 -4 38 -4 48v0v20v30v51v50v49v51v49v26v22c0 17 1 35 3 53c2 22 4 44 8 64v0c4 23 9 44 15 64v0c29 91 77 143 145 154v0c8 1 17 2 26 2c2 0 3 0 4 -1c1 1 2 1 3 1c128 -4 170 -126 182 -228c0 -3 -2 -6 -5 -7h-1c-3 0 -5 3 -6 6c-12 97 -51 213 -170 217
c-2 0 -3 1 -3 1c-1 0 -2 -1 -3 -1c-2 0 -45 -6 -76 -104c-6 -21 -11 -44 -16 -70c-3 -18 -5 -38 -7 -59v0c-1 -15 -3 -32 -3 -50c-1 -16 -2 -33 -2 -50v0v0v-14v-38v0l-1 -50v0v0l-1 -51v-51l-1 -50l-1 -53v-9s0 -17 1 -42c1 -15 2 -30 2 -44v0v0c2 -16 3 -31 5 -46
c1 -15 3 -29 6 -42v0v0c2 -15 5 -29 8 -42v0c4 -14 8 -28 13 -39c4 -12 8 -22 13 -31v0c16 -27 35 -41 57 -41c2 0 3 -1 3 -1c1 0 2 1 3 1c183 6 176 322 176 325s2 6 6 6c3 0 6 -2 6 -6zM84 598l23 25l61 66c7 22 15 39 22 53l-17 -18l-79 -85c-4 -13 -7 -27 -10 -41z
M69 213v-33l68 73v34zM139 388l-23 -25l-47 -50v-32l69 74zM152 618c3 16 6 32 9 46l-40 -43l-42 -45c-2 -14 -4 -29 -6 -44zM71 513c-1 -12 -1 -24 -2 -35l65 69l10 11c2 14 3 26 5 39zM69 441v-11l2 3l70 75c0 10 1 21 2 31l-74 -79v-19zM69 413v-32l71 77v31l-22 -23z
M69 364v-34l34 37l36 38v35zM69 264v-33l69 74v33l-32 -35zM69 135v-5l34 38l33 35l1 33l-41 -45l-27 -28v-28zM69 113c1 -8 1 -19 2 -32l60 64l5 5v36l-19 -21zM73 65c1 -10 2 -20 4 -30l59 64c0 15 -1 27 -1 34zM79 20c2 -8 3 -16 5 -24l54 59c0 9 -1 18 -1 27zM140 39
l-53 -57c3 -9 5 -17 8 -25l48 51c-1 10 -2 20 -3 31zM211 782c-47 -14 -83 -53 -107 -116l104 113zM145 -7l-46 -49c3 -8 5 -15 8 -22l41 44zM151 -48l-38 -41c4 -8 8 -15 12 -22l19 20l13 14c-2 9 -4 19 -6 29zM154 -98l-23 -24c5 -7 10 -13 16 -19l18 19l4 5
c-3 8 -6 17 -8 27zM171 -132l-16 -18l15 -12l13 13c-3 6 -6 13 -9 20zM180 -169c9 -5 18 -9 27 -12c-6 6 -12 13 -18 22l-6 -7zM236 -201l16 1l45 -38c3 -2 3 -6 1 -8c-1 -2 -2 -2 -4 -2c-1 0 -2 0 -3 1z" />
    <glyph glyph-name="Eacute" unicode="&#xc9;" horiz-adv-x="605" 
d="M491 -188c3 0 6 -2 6 -6c0 -3 -3 -6 -6 -6h-292h-1v0h-27h-50h-2c-3 0 -6 3 -6 6v47v49v51v53v49v51v52v49v51v53v49v50v50v48v51v53v49v51v51v29c0 3 3 6 6 6h28h51h1h1h291c3 0 6 -2 6 -6c0 -3 -3 -6 -6 -6h-287v-45v-49v-53v-51v-49v-49v-36h197c3 0 6 -3 6 -6
c0 -4 -3 -6 -6 -6h-197v-3v-49v-52v-51v-49v-53v-50v-49v-53v-51v-49v-49v-51v-21h287zM169 -188l13 13l10 11v34l-56 -57l-1 -1h34zM125 726l46 47l13 13h-34l-14 -14l-11 -11v-35zM192 -81l-67 -68v-32l67 68v32zM192 -32l-67 -68v-32l67 68v32zM192 19l-67 -68v-34l67 68
v34zM192 71l-67 -68v-35l67 67v36zM192 120l-67 -68v-32l67 68v32zM192 171l-67 -68v-34l67 68v34zM192 224l-67 -68v-36l67 68v36zM192 273l-67 -68v-32l67 67v33zM192 323l-67 -67v-34l67 67v34zM192 376l-67 -68v-36l67 68v36zM192 425l-67 -68v-32l67 68v32zM192 476
l-67 -68v-34l67 68v34zM192 525l-67 -68v-32l67 68v32zM192 574l-67 -68v-32l67 68v32zM192 625l-67 -68v-34l67 68v34zM192 677l-67 -67v-36l67 68v35zM192 726l-67 -68v-32l67 68v32zM192 777l-67 -68v-34l67 68v34zM133 786h-8v-8zM192 -188v7l-5 -6l-2 -1h7zM300 869
c-1 0 -2 1 -3 2c-2 2 -2 5 0 7l60 61c2 1 5 1 7 0c2 -2 2 -6 0 -7l-60 -61c-1 -1 -3 -2 -4 -2z" />
    <glyph glyph-name="Ecircumflex" unicode="&#xca;" horiz-adv-x="605" 
d="M491 -188c3 0 6 -2 6 -6c0 -3 -3 -6 -6 -6h-292h-1v0h-27h-50h-2c-3 0 -6 3 -6 6v47v49v51v53v49v51v52v49v51v53v49v50v50v48v51v53v49v51v51v29c0 3 3 6 6 6h28h51h1h1h291c3 0 6 -2 6 -6c0 -3 -3 -6 -6 -6h-287v-45v-49v-53v-51v-49v-49v-36h197c3 0 6 -3 6 -6
c0 -4 -3 -6 -6 -6h-197v-3v-49v-52v-51v-49v-53v-50v-49v-53v-51v-49v-49v-51v-21h287zM169 -188l13 13l10 11v34l-56 -57l-1 -1h34zM125 726l46 47l13 13h-34l-14 -14l-11 -11v-35zM192 -81l-67 -68v-32l67 68v32zM192 -32l-67 -68v-32l67 68v32zM192 19l-67 -68v-34l67 68
v34zM192 71l-67 -68v-35l67 67v36zM192 120l-67 -68v-32l67 68v32zM192 171l-67 -68v-34l67 68v34zM192 224l-67 -68v-36l67 68v36zM192 273l-67 -68v-32l67 67v33zM192 323l-67 -67v-34l67 67v34zM192 376l-67 -68v-36l67 68v36zM192 425l-67 -68v-32l67 68v32zM192 476
l-67 -68v-34l67 68v34zM192 525l-67 -68v-32l67 68v32zM192 574l-67 -68v-32l67 68v32zM192 625l-67 -68v-34l67 68v34zM192 677l-67 -67v-36l67 68v35zM192 726l-67 -68v-32l67 68v32zM192 777l-67 -68v-34l67 68v34zM133 786h-8v-8zM192 -188v7l-5 -6l-2 -1h7zM249 860
c-2 -2 -6 -2 -8 0s-1 5 1 7l52 52c1 0 2 1 4 1c1 0 2 -1 3 -2l49 -51c1 -2 1 -5 -1 -7c-1 -1 -2 -2 -3 -2s-3 1 -4 2l-44 48z" />
    <glyph glyph-name="Edieresis" unicode="&#xcb;" horiz-adv-x="605" 
d="M491 -188c3 0 6 -2 6 -6c0 -3 -3 -6 -6 -6h-292h-1v0h-27h-50h-2c-3 0 -6 3 -6 6v47v49v51v53v49v51v52v49v51v53v49v50v50v48v51v53v49v51v51v29c0 3 3 6 6 6h28h51h1h1h291c3 0 6 -2 6 -6c0 -3 -3 -6 -6 -6h-287v-45v-49v-53v-51v-49v-49v-36h197c3 0 6 -3 6 -6
c0 -4 -3 -6 -6 -6h-197v-3v-49v-52v-51v-49v-53v-50v-49v-53v-51v-49v-49v-51v-21h287zM169 -188l13 13l10 11v34l-56 -57l-1 -1h34zM125 726l46 47l13 13h-34l-14 -14l-11 -11v-35zM192 -81l-67 -68v-32l67 68v32zM192 -32l-67 -68v-32l67 68v32zM192 19l-67 -68v-34l67 68
v34zM192 71l-67 -68v-35l67 67v36zM192 120l-67 -68v-32l67 68v32zM192 171l-67 -68v-34l67 68v34zM192 224l-67 -68v-36l67 68v36zM192 273l-67 -68v-32l67 67v33zM192 323l-67 -67v-34l67 67v34zM192 376l-67 -68v-36l67 68v36zM192 425l-67 -68v-32l67 68v32zM192 476
l-67 -68v-34l67 68v34zM192 525l-67 -68v-32l67 68v32zM192 574l-67 -68v-32l67 68v32zM192 625l-67 -68v-34l67 68v34zM192 677l-67 -67v-36l67 68v35zM192 726l-67 -68v-32l67 68v32zM192 777l-67 -68v-34l67 68v34zM133 786h-8v-8zM192 -188v7l-5 -6l-2 -1h7zM263 845
c-7 0 -13 5 -13 12s6 13 13 13c6 0 12 -6 12 -13s-6 -12 -12 -12zM366 845c-7 0 -12 5 -12 12s5 13 12 13s13 -6 13 -13s-6 -12 -13 -12z" />
    <glyph glyph-name="Egrave" unicode="&#xc8;" horiz-adv-x="605" 
d="M491 -188c3 0 6 -2 6 -6c0 -3 -3 -6 -6 -6h-292h-1v0h-27h-50h-2c-3 0 -6 3 -6 6v47v49v51v53v49v51v52v49v51v53v49v50v50v48v51v53v49v51v51v29c0 3 3 6 6 6h28h51h1h1h291c3 0 6 -2 6 -6c0 -3 -3 -6 -6 -6h-287v-45v-49v-53v-51v-49v-49v-36h197c3 0 6 -3 6 -6
c0 -4 -3 -6 -6 -6h-197v-3v-49v-52v-51v-49v-53v-50v-49v-53v-51v-49v-49v-51v-21h287zM169 -188l13 13l10 11v34l-56 -57l-1 -1h34zM125 726l46 47l13 13h-34l-14 -14l-11 -11v-35zM192 -81l-67 -68v-32l67 68v32zM192 -32l-67 -68v-32l67 68v32zM192 19l-67 -68v-34l67 68
v34zM192 71l-67 -68v-35l67 67v36zM192 120l-67 -68v-32l67 68v32zM192 171l-67 -68v-34l67 68v34zM192 224l-67 -68v-36l67 68v36zM192 273l-67 -68v-32l67 67v33zM192 323l-67 -67v-34l67 67v34zM192 376l-67 -68v-36l67 68v36zM192 425l-67 -68v-32l67 68v32zM192 476
l-67 -68v-34l67 68v34zM192 525l-67 -68v-32l67 68v32zM192 574l-67 -68v-32l67 68v32zM192 625l-67 -68v-34l67 68v34zM192 677l-67 -67v-36l67 68v35zM192 726l-67 -68v-32l67 68v32zM192 777l-67 -68v-34l67 68v34zM133 786h-8v-8zM192 -188v7l-5 -6l-2 -1h7zM293 851
l-61 61c-2 1 -2 5 0 7c2 1 5 1 7 0l61 -61c2 -2 2 -5 0 -7c-1 -1 -3 -2 -4 -2s-2 1 -3 2z" />
    <glyph glyph-name="Iacute" unicode="&#xcd;" horiz-adv-x="246" 
d="M162 800c4 0 6 -3 6 -6v-1v0v-51v-49v-53v-51v-49v-49v-51v-49v-52v-51v-49v-53v-51v-49v-53v-51v-49v-49v-51v-27c0 -3 -2 -6 -6 -6h-26h-50h-3c-3 0 -5 3 -5 6v47v49v51v53v49v51v53v49v51v52v49v51v49v49v51v53v49v51v52v29c0 3 2 6 5 6h29h50zM89 628l67 68v32
l-67 -68v-32zM89 575l67 68v36l-67 -68v-36zM89 524l67 68v34l-67 -68v-34zM89 475l67 68v32l-67 -68v-32zM89 426l67 67v1v32l-67 -68v-32zM89 326l67 68v32l-67 -68v-32zM89 273l67 68v36l-67 -68v-36zM89 222l67 68v34l-67 -68v-34zM89 173l67 68v32l-67 -68v-32zM89 120
l67 68v36l-67 -68v-36zM89 69l67 68v34l-67 -68v-34zM89 20l67 68v32l-67 -68v-32zM89 -33l67 68v36l-67 -68v-36zM89 -83l67 67v35l-67 -68v-34zM89 -132l67 68v32l-67 -68v-32zM89 -182l55 55l12 13v33l-67 -68v-33zM156 477l-66 -67l-1 -1v-34l67 68v34zM156 779l-64 -65
l-3 -3v-34l67 68v34zM89 728l60 60h-35l-25 -26v-34zM89 788v-9l9 9h-9zM156 -131l-56 -57h33l23 23v34zM150 -188h6v6zM120 859c-1 0 -2 1 -3 2c-2 2 -2 5 0 7l60 61c2 1 5 1 7 0c2 -2 2 -6 0 -7l-60 -61c-1 -1 -3 -2 -4 -2z" />
    <glyph glyph-name="Icircumflex" unicode="&#xce;" horiz-adv-x="246" 
d="M162 800c4 0 6 -3 6 -6v-1v0v-51v-49v-53v-51v-49v-49v-51v-49v-52v-51v-49v-53v-51v-49v-53v-51v-49v-49v-51v-27c0 -3 -2 -6 -6 -6h-26h-50h-3c-3 0 -5 3 -5 6v47v49v51v53v49v51v53v49v51v52v49v51v49v49v51v53v49v51v52v29c0 3 2 6 5 6h29h50zM89 628l67 68v32
l-67 -68v-32zM89 575l67 68v36l-67 -68v-36zM89 524l67 68v34l-67 -68v-34zM89 475l67 68v32l-67 -68v-32zM89 426l67 67v1v32l-67 -68v-32zM89 326l67 68v32l-67 -68v-32zM89 273l67 68v36l-67 -68v-36zM89 222l67 68v34l-67 -68v-34zM89 173l67 68v32l-67 -68v-32zM89 120
l67 68v36l-67 -68v-36zM89 69l67 68v34l-67 -68v-34zM89 20l67 68v32l-67 -68v-32zM89 -33l67 68v36l-67 -68v-36zM89 -83l67 67v35l-67 -68v-34zM89 -132l67 68v32l-67 -68v-32zM89 -182l55 55l12 13v33l-67 -68v-33zM156 477l-66 -67l-1 -1v-34l67 68v34zM156 779l-64 -65
l-3 -3v-34l67 68v34zM89 728l60 60h-35l-25 -26v-34zM89 788v-9l9 9h-9zM156 -131l-56 -57h33l23 23v34zM150 -188h6v6zM79 860c-2 -2 -6 -2 -8 0s-1 5 1 7l52 52c1 0 2 1 4 1c1 0 2 -1 3 -2l49 -51c1 -2 1 -5 -1 -7c-1 -1 -2 -2 -3 -2s-3 1 -4 2l-44 48z" />
    <glyph glyph-name="Idieresis" unicode="&#xcf;" horiz-adv-x="246" 
d="M162 800c4 0 6 -3 6 -6v-1v0v-51v-49v-53v-51v-49v-49v-51v-49v-52v-51v-49v-53v-51v-49v-53v-51v-49v-49v-51v-27c0 -3 -2 -6 -6 -6h-26h-50h-3c-3 0 -5 3 -5 6v47v49v51v53v49v51v53v49v51v52v49v51v49v49v51v53v49v51v52v29c0 3 2 6 5 6h29h50zM89 628l67 68v32
l-67 -68v-32zM89 575l67 68v36l-67 -68v-36zM89 524l67 68v34l-67 -68v-34zM89 475l67 68v32l-67 -68v-32zM89 426l67 67v1v32l-67 -68v-32zM89 326l67 68v32l-67 -68v-32zM89 273l67 68v36l-67 -68v-36zM89 222l67 68v34l-67 -68v-34zM89 173l67 68v32l-67 -68v-32zM89 120
l67 68v36l-67 -68v-36zM89 69l67 68v34l-67 -68v-34zM89 20l67 68v32l-67 -68v-32zM89 -33l67 68v36l-67 -68v-36zM89 -83l67 67v35l-67 -68v-34zM89 -132l67 68v32l-67 -68v-32zM89 -182l55 55l12 13v33l-67 -68v-33zM156 477l-66 -67l-1 -1v-34l67 68v34zM156 779l-64 -65
l-3 -3v-34l67 68v34zM89 728l60 60h-35l-25 -26v-34zM89 788v-9l9 9h-9zM156 -131l-56 -57h33l23 23v34zM150 -188h6v6zM73 845c-7 0 -13 5 -13 12s6 13 13 13c6 0 12 -6 12 -13s-6 -12 -12 -12zM176 845c-7 0 -12 5 -12 12s5 13 12 13s13 -6 13 -13s-6 -12 -13 -12z" />
    <glyph glyph-name="Igrave" unicode="&#xcc;" horiz-adv-x="246" 
d="M162 800c4 0 6 -3 6 -6v-1v0v-51v-49v-53v-51v-49v-49v-51v-49v-52v-51v-49v-53v-51v-49v-53v-51v-49v-49v-51v-27c0 -3 -2 -6 -6 -6h-26h-50h-3c-3 0 -5 3 -5 6v47v49v51v53v49v51v53v49v51v52v49v51v49v49v51v53v49v51v52v29c0 3 2 6 5 6h29h50zM89 628l67 68v32
l-67 -68v-32zM89 575l67 68v36l-67 -68v-36zM89 524l67 68v34l-67 -68v-34zM89 475l67 68v32l-67 -68v-32zM89 426l67 67v1v32l-67 -68v-32zM89 326l67 68v32l-67 -68v-32zM89 273l67 68v36l-67 -68v-36zM89 222l67 68v34l-67 -68v-34zM89 173l67 68v32l-67 -68v-32zM89 120
l67 68v36l-67 -68v-36zM89 69l67 68v34l-67 -68v-34zM89 20l67 68v32l-67 -68v-32zM89 -33l67 68v36l-67 -68v-36zM89 -83l67 67v35l-67 -68v-34zM89 -132l67 68v32l-67 -68v-32zM89 -182l55 55l12 13v33l-67 -68v-33zM156 477l-66 -67l-1 -1v-34l67 68v34zM156 779l-64 -65
l-3 -3v-34l67 68v34zM89 728l60 60h-35l-25 -26v-34zM89 788v-9l9 9h-9zM156 -131l-56 -57h33l23 23v34zM150 -188h6v6zM113 841l-61 61c-2 1 -2 5 0 7c2 1 5 1 7 0l61 -61c2 -2 2 -5 0 -7c-1 -1 -3 -2 -4 -2s-2 1 -3 2z" />
    <glyph glyph-name="Oacute" unicode="&#xd3;" horiz-adv-x="467" 
d="M296 758c62 -58 93 -164 93 -316v-258v-43v-7c0 -17 -1 -89 -20 -161c-29 -110 -87 -173 -167 -173h-5v0h-1h-1c-31 0 -60 8 -84 25c-9 6 -18 13 -25 21v0c-9 9 -17 19 -24 30c-7 10 -13 21 -19 33c-5 11 -9 22 -13 34v0c-5 13 -9 26 -12 39s-6 26 -8 39
c-3 15 -5 30 -6 46c-2 20 -4 38 -4 48v0v20v30v51v50v49v51v49v26v22c0 17 1 35 3 53c2 22 4 44 8 64v0c4 23 9 44 15 64v0c29 91 77 143 145 154v0c8 1 17 2 26 2v0c2 0 51 3 99 -42zM87 558c2 14 3 26 5 39l-78 -84c-1 -12 -1 -24 -2 -35l65 69zM12 413v-32l71 76v32
l-22 -23zM12 213v-33l68 73v34zM82 388l-23 -25l-47 -50v-32l69 74zM12 364v-34l34 37l36 38v35zM12 264v-33l69 74v33l-32 -35zM12 135v-5l34 37l33 36l1 33l-41 -45l-27 -28v-28zM12 113c1 -8 1 -19 2 -32l60 64l5 5v36l-19 -21zM16 65c1 -10 2 -20 4 -30l59 64
c0 15 -1 27 -1 34zM22 20c2 -8 3 -16 5 -24l54 59c0 9 -1 18 -1 27zM83 39l-53 -57c3 -9 5 -17 8 -25l48 51c-1 10 -2 20 -3 31zM84 507c0 11 1 22 2 32l-74 -79v-19v-11l2 3zM95 618c3 16 6 32 9 46l-40 -43l-42 -45c-2 -14 -4 -29 -6 -44zM111 689c7 22 15 39 22 53
l-17 -18l-79 -85c-4 -13 -7 -27 -10 -41l23 25zM154 782c-47 -14 -83 -53 -107 -116l104 113zM88 -7l-46 -49c3 -8 5 -15 8 -22l41 44zM94 -48l-38 -41c4 -8 8 -15 12 -22l19 20l13 14c-2 9 -4 19 -6 29zM97 -98l-23 -24c5 -7 10 -13 16 -19l18 19l4 5c-3 8 -6 17 -8 27z
M114 -132l-16 -18l15 -12l13 13c-3 6 -6 13 -9 20zM123 -169c9 -5 18 -9 27 -12c-6 6 -12 13 -18 22l-6 -7zM377 138v304c0 184 -48 268 -89 307c-44 41 -89 39 -90 39c-3 0 -46 -7 -76 -104c-6 -21 -11 -44 -16 -70c-3 -18 -5 -38 -7 -59v0c-1 -16 -3 -33 -3 -50
c-1 -16 -2 -33 -2 -50v0v0v-14v-38v0l-1 -50v0v0l-1 -51v-51l-1 -50l-1 -53v-9s0 -17 1 -42c1 -15 2 -30 2 -44v0v0c2 -16 3 -31 5 -46c1 -15 3 -29 6 -42v0v0c2 -15 5 -29 8 -42v0c4 -14 8 -28 13 -39c4 -12 8 -22 13 -31v0c16 -27 35 -41 57 -41h1h1h5
c170 0 175 283 175 321v4v1zM220 869c-1 0 -2 1 -3 2c-2 2 -2 5 0 7l60 61c2 1 5 1 7 0c2 -2 2 -6 0 -7l-60 -61c-1 -1 -3 -2 -4 -2z" />
    <glyph glyph-name="Ocircumflex" unicode="&#xd4;" horiz-adv-x="467" 
d="M296 758c62 -58 93 -164 93 -316v-258v-43v-7c0 -17 -1 -89 -20 -161c-29 -110 -87 -173 -167 -173h-5v0h-1h-1c-31 0 -60 8 -84 25c-9 6 -18 13 -25 21v0c-9 9 -17 19 -24 30c-7 10 -13 21 -19 33c-5 11 -9 22 -13 34v0c-5 13 -9 26 -12 39s-6 26 -8 39
c-3 15 -5 30 -6 46c-2 20 -4 38 -4 48v0v20v30v51v50v49v51v49v26v22c0 17 1 35 3 53c2 22 4 44 8 64v0c4 23 9 44 15 64v0c29 91 77 143 145 154v0c8 1 17 2 26 2v0c2 0 51 3 99 -42zM87 558c2 14 3 26 5 39l-78 -84c-1 -12 -1 -24 -2 -35l65 69zM12 413v-32l71 76v32
l-22 -23zM12 213v-33l68 73v34zM82 388l-23 -25l-47 -50v-32l69 74zM12 364v-34l34 37l36 38v35zM12 264v-33l69 74v33l-32 -35zM12 135v-5l34 37l33 36l1 33l-41 -45l-27 -28v-28zM12 113c1 -8 1 -19 2 -32l60 64l5 5v36l-19 -21zM16 65c1 -10 2 -20 4 -30l59 64
c0 15 -1 27 -1 34zM22 20c2 -8 3 -16 5 -24l54 59c0 9 -1 18 -1 27zM83 39l-53 -57c3 -9 5 -17 8 -25l48 51c-1 10 -2 20 -3 31zM84 507c0 11 1 22 2 32l-74 -79v-19v-11l2 3zM95 618c3 16 6 32 9 46l-40 -43l-42 -45c-2 -14 -4 -29 -6 -44zM111 689c7 22 15 39 22 53
l-17 -18l-79 -85c-4 -13 -7 -27 -10 -41l23 25zM154 782c-47 -14 -83 -53 -107 -116l104 113zM88 -7l-46 -49c3 -8 5 -15 8 -22l41 44zM94 -48l-38 -41c4 -8 8 -15 12 -22l19 20l13 14c-2 9 -4 19 -6 29zM97 -98l-23 -24c5 -7 10 -13 16 -19l18 19l4 5c-3 8 -6 17 -8 27z
M114 -132l-16 -18l15 -12l13 13c-3 6 -6 13 -9 20zM123 -169c9 -5 18 -9 27 -12c-6 6 -12 13 -18 22l-6 -7zM377 138v304c0 184 -48 268 -89 307c-44 41 -89 39 -90 39c-3 0 -46 -7 -76 -104c-6 -21 -11 -44 -16 -70c-3 -18 -5 -38 -7 -59v0c-1 -16 -3 -33 -3 -50
c-1 -16 -2 -33 -2 -50v0v0v-14v-38v0l-1 -50v0v0l-1 -51v-51l-1 -50l-1 -53v-9s0 -17 1 -42c1 -15 2 -30 2 -44v0v0c2 -16 3 -31 5 -46c1 -15 3 -29 6 -42v0v0c2 -15 5 -29 8 -42v0c4 -14 8 -28 13 -39c4 -12 8 -22 13 -31v0c16 -27 35 -41 57 -41h1h1h5
c170 0 175 283 175 321v4v1zM149 860c-2 -2 -6 -2 -8 0s-1 5 1 7l52 52c1 0 2 1 4 1c1 0 2 -1 3 -2l49 -51c1 -2 1 -5 -1 -7c-1 -1 -2 -2 -3 -2s-3 1 -4 2l-44 48z" />
    <glyph glyph-name="Odieresis" unicode="&#xd6;" horiz-adv-x="537" 
d="M366 758c62 -58 93 -164 93 -316v-258v-43v-7c0 -17 -1 -89 -20 -161c-29 -110 -87 -173 -167 -173h-5v0h-1h-1c-31 0 -60 8 -84 25c-9 6 -18 13 -25 21v0c-9 9 -17 19 -24 30c-7 10 -13 21 -19 33c-5 11 -9 22 -13 34v0c-5 13 -9 26 -12 39s-6 26 -8 39
c-3 15 -5 30 -6 46c-2 20 -4 38 -4 48v0v20v30v51v50v49v51v49v26v22c0 17 1 35 3 53c2 22 4 44 8 64v0c4 23 9 44 15 64v0c29 91 77 143 145 154v0c8 1 17 2 26 2v0c2 0 51 3 99 -42zM157 558c2 14 3 26 5 39l-78 -84c-1 -12 -1 -24 -2 -35l65 69zM82 413v-32l71 76v32
l-22 -23zM82 213v-33l68 73v34zM152 388l-23 -25l-47 -50v-32l69 74zM82 364v-34l34 37l36 38v35zM82 264v-33l69 74v33l-32 -35zM82 135v-5l34 37l33 36l1 33l-41 -45l-27 -28v-28zM82 113c1 -8 1 -19 2 -32l60 64l5 5v36l-19 -21zM86 65c1 -10 2 -20 4 -30l59 64
c0 15 -1 27 -1 34zM92 20c2 -8 3 -16 5 -24l54 59c0 9 -1 18 -1 27zM153 39l-53 -57c3 -9 5 -17 8 -25l48 51c-1 10 -2 20 -3 31zM154 507c0 11 1 22 2 32l-74 -79v-19v-11l2 3zM165 618c3 16 6 32 9 46l-40 -43l-42 -45c-2 -14 -4 -29 -6 -44zM181 689c7 22 15 39 22 53
l-17 -18l-79 -85c-4 -13 -7 -27 -10 -41l23 25zM224 782c-47 -14 -83 -53 -107 -116l104 113zM158 -7l-46 -49c3 -8 5 -15 8 -22l41 44zM164 -48l-38 -41c4 -8 8 -15 12 -22l19 20l13 14c-2 9 -4 19 -6 29zM167 -98l-23 -24c5 -7 10 -13 16 -19l18 19l4 5c-3 8 -6 17 -8 27z
M184 -132l-16 -18l15 -12l13 13c-3 6 -6 13 -9 20zM193 -169c9 -5 18 -9 27 -12c-6 6 -12 13 -18 22l-6 -7zM447 138v304c0 184 -48 268 -89 307c-44 41 -89 39 -90 39c-3 0 -46 -7 -76 -104c-6 -21 -11 -44 -16 -70c-3 -18 -5 -38 -7 -59v0c-1 -16 -3 -33 -3 -50
c-1 -16 -2 -33 -2 -50v0v0v-14v-38v0l-1 -50v0v0l-1 -51v-51l-1 -50l-1 -53v-9s0 -17 1 -42c1 -15 2 -30 2 -44v0v0c2 -16 3 -31 5 -46c1 -15 3 -29 6 -42v0v0c2 -15 5 -29 8 -42v0c4 -14 8 -28 13 -39c4 -12 8 -22 13 -31v0c16 -27 35 -41 57 -41h1h1h5
c170 0 175 283 175 321v4v1zM213 845c-7 0 -13 5 -13 12s6 13 13 13c6 0 12 -6 12 -13s-6 -12 -12 -12zM316 845c-7 0 -12 5 -12 12s5 13 12 13s13 -6 13 -13s-6 -12 -13 -12z" />
    <glyph glyph-name="Ograve" unicode="&#xd2;" horiz-adv-x="467" 
d="M296 758c62 -58 93 -164 93 -316v-258v-43v-7c0 -17 -1 -89 -20 -161c-29 -110 -87 -173 -167 -173h-5v0h-1h-1c-31 0 -60 8 -84 25c-9 6 -18 13 -25 21v0c-9 9 -17 19 -24 30c-7 10 -13 21 -19 33c-5 11 -9 22 -13 34v0c-5 13 -9 26 -12 39s-6 26 -8 39
c-3 15 -5 30 -6 46c-2 20 -4 38 -4 48v0v20v30v51v50v49v51v49v26v22c0 17 1 35 3 53c2 22 4 44 8 64v0c4 23 9 44 15 64v0c29 91 77 143 145 154v0c8 1 17 2 26 2v0c2 0 51 3 99 -42zM87 558c2 14 3 26 5 39l-78 -84c-1 -12 -1 -24 -2 -35l65 69zM12 413v-32l71 76v32
l-22 -23zM12 213v-33l68 73v34zM82 388l-23 -25l-47 -50v-32l69 74zM12 364v-34l34 37l36 38v35zM12 264v-33l69 74v33l-32 -35zM12 135v-5l34 37l33 36l1 33l-41 -45l-27 -28v-28zM12 113c1 -8 1 -19 2 -32l60 64l5 5v36l-19 -21zM16 65c1 -10 2 -20 4 -30l59 64
c0 15 -1 27 -1 34zM22 20c2 -8 3 -16 5 -24l54 59c0 9 -1 18 -1 27zM83 39l-53 -57c3 -9 5 -17 8 -25l48 51c-1 10 -2 20 -3 31zM84 507c0 11 1 22 2 32l-74 -79v-19v-11l2 3zM95 618c3 16 6 32 9 46l-40 -43l-42 -45c-2 -14 -4 -29 -6 -44zM111 689c7 22 15 39 22 53
l-17 -18l-79 -85c-4 -13 -7 -27 -10 -41l23 25zM154 782c-47 -14 -83 -53 -107 -116l104 113zM88 -7l-46 -49c3 -8 5 -15 8 -22l41 44zM94 -48l-38 -41c4 -8 8 -15 12 -22l19 20l13 14c-2 9 -4 19 -6 29zM97 -98l-23 -24c5 -7 10 -13 16 -19l18 19l4 5c-3 8 -6 17 -8 27z
M114 -132l-16 -18l15 -12l13 13c-3 6 -6 13 -9 20zM123 -169c9 -5 18 -9 27 -12c-6 6 -12 13 -18 22l-6 -7zM377 138v304c0 184 -48 268 -89 307c-44 41 -89 39 -90 39c-3 0 -46 -7 -76 -104c-6 -21 -11 -44 -16 -70c-3 -18 -5 -38 -7 -59v0c-1 -16 -3 -33 -3 -50
c-1 -16 -2 -33 -2 -50v0v0v-14v-38v0l-1 -50v0v0l-1 -51v-51l-1 -50l-1 -53v-9s0 -17 1 -42c1 -15 2 -30 2 -44v0v0c2 -16 3 -31 5 -46c1 -15 3 -29 6 -42v0v0c2 -15 5 -29 8 -42v0c4 -14 8 -28 13 -39c4 -12 8 -22 13 -31v0c16 -27 35 -41 57 -41h1h1h5
c170 0 175 283 175 321v4v1zM193 851l-61 61c-2 1 -2 5 0 7c2 1 5 1 7 0l61 -61c2 -2 2 -5 0 -7c-1 -1 -3 -2 -4 -2s-2 1 -3 2z" />
    <glyph glyph-name="Otilde" unicode="&#xd5;" horiz-adv-x="467" 
d="M296 758c62 -58 93 -164 93 -316v-258v-43v-7c0 -17 -1 -89 -20 -161c-29 -110 -87 -173 -167 -173h-5v0h-1h-1c-31 0 -60 8 -84 25c-9 6 -18 13 -25 21v0c-9 9 -17 19 -24 30c-7 10 -13 21 -19 33c-5 11 -9 22 -13 34v0c-5 13 -9 26 -12 39s-6 26 -8 39
c-3 15 -5 30 -6 46c-2 20 -4 38 -4 48v0v20v30v51v50v49v51v49v26v22c0 17 1 35 3 53c2 22 4 44 8 64v0c4 23 9 44 15 64v0c29 91 77 143 145 154v0c8 1 17 2 26 2v0c2 0 51 3 99 -42zM87 558c2 14 3 26 5 39l-78 -84c-1 -12 -1 -24 -2 -35l65 69zM12 413v-32l71 76v32
l-22 -23zM12 213v-33l68 73v34zM82 388l-23 -25l-47 -50v-32l69 74zM12 364v-34l34 37l36 38v35zM12 264v-33l69 74v33l-32 -35zM12 135v-5l34 37l33 36l1 33l-41 -45l-27 -28v-28zM12 113c1 -8 1 -19 2 -32l60 64l5 5v36l-19 -21zM16 65c1 -10 2 -20 4 -30l59 64
c0 15 -1 27 -1 34zM22 20c2 -8 3 -16 5 -24l54 59c0 9 -1 18 -1 27zM83 39l-53 -57c3 -9 5 -17 8 -25l48 51c-1 10 -2 20 -3 31zM84 507c0 11 1 22 2 32l-74 -79v-19v-11l2 3zM95 618c3 16 6 32 9 46l-40 -43l-42 -45c-2 -14 -4 -29 -6 -44zM111 689c7 22 15 39 22 53
l-17 -18l-79 -85c-4 -13 -7 -27 -10 -41l23 25zM154 782c-47 -14 -83 -53 -107 -116l104 113zM88 -7l-46 -49c3 -8 5 -15 8 -22l41 44zM94 -48l-38 -41c4 -8 8 -15 12 -22l19 20l13 14c-2 9 -4 19 -6 29zM97 -98l-23 -24c5 -7 10 -13 16 -19l18 19l4 5c-3 8 -6 17 -8 27z
M114 -132l-16 -18l15 -12l13 13c-3 6 -6 13 -9 20zM123 -169c9 -5 18 -9 27 -12c-6 6 -12 13 -18 22l-6 -7zM377 138v304c0 184 -48 268 -89 307c-44 41 -89 39 -90 39c-3 0 -46 -7 -76 -104c-6 -21 -11 -44 -16 -70c-3 -18 -5 -38 -7 -59v0c-1 -16 -3 -33 -3 -50
c-1 -16 -2 -33 -2 -50v0v0v-14v-38v0l-1 -50v0v0l-1 -51v-51l-1 -50l-1 -53v-9s0 -17 1 -42c1 -15 2 -30 2 -44v0v0c2 -16 3 -31 5 -46c1 -15 3 -29 6 -42v0v0c2 -15 5 -29 8 -42v0c4 -14 8 -28 13 -39c4 -12 8 -22 13 -31v0c16 -27 35 -41 57 -41h1h1h5
c170 0 175 283 175 321v4v1zM129 866c-2 -2 -5 -2 -7 -1c-2 2 -3 5 -1 7c1 1 14 19 36 22c14 1 28 -3 42 -14c11 -9 22 -13 33 -11c17 3 27 19 27 19c2 2 5 3 7 1c2 -1 3 -4 1 -7c0 0 -12 -19 -33 -23h-7c-12 0 -23 4 -35 13c-11 9 -23 13 -34 12c-18 -3 -29 -18 -29 -18z
" />
    <glyph glyph-name="Uacute" unicode="&#xda;" horiz-adv-x="469" 
d="M389 158c0 0 5 -86 -15 -172c-25 -116 -83 -180 -166 -185v-1c-3 0 -6 3 -6 6c0 -3 -3 -6 -6 -6c-26 0 -49 5 -71 16c-10 5 -20 11 -29 19c-9 6 -16 14 -24 23c-7 9 -15 20 -21 31v0c-6 11 -12 23 -17 36c-5 11 -9 23 -12 36c-4 12 -7 26 -10 40v0c-3 13 -5 27 -7 41v0v0
c-1 15 -3 32 -4 48c-1 21 -1 40 -1 51v0v0c0 11 1 18 1 18v32v51v50v49v52v48v48v50v55v47v51v52v46c0 4 2 6 6 6h43h28c3 0 6 -2 6 -6v-22v-51v-47v-54v-51v-47v-49v-51v-50v-50v-50v-50v-52v-8v-43c1 -15 1 -30 2 -44v0c1 -16 3 -32 5 -46v0c1 -15 3 -29 6 -42
c2 -15 6 -29 9 -42c4 -14 8 -27 12 -39c4 -11 9 -21 14 -31v0c6 -10 12 -20 18 -28v0c24 -29 46 -31 46 -31c3 0 6 -3 6 -6c0 4 2 6 5 6c188 13 170 343 170 346v636c0 3 2 6 6 6c3 0 6 -3 6 -6v-636zM77 -129l27 28l2 2l-9 27l-3 -3l-31 -34c5 -7 9 -14 14 -20zM42 -62l4 4
l39 42c-2 9 -3 17 -4 27l-47 -50c2 -8 5 -16 8 -23zM74 72c0 9 -1 19 -1 28l-55 -60c1 -8 2 -17 3 -25zM72 117v34l-41 -44l-18 -19c1 -11 2 -22 3 -32zM12 240v-34l60 64v33zM12 339v-32l60 64v32zM12 591v-37l60 64v37zM12 689v-33l60 63v34zM12 638v-29l60 63v30zM12 537
v-33l60 63v34zM12 456l53 56l7 8v30l-60 -64v-30zM12 439v-31l60 64v31l-52 -56zM12 390v-34l60 64v34zM12 290v-33l60 64v32zM12 158v-2l34 37l26 28v32l-60 -64v-31zM12 138v-33l60 63v35l-26 -28zM30 -26l25 26l24 26c-2 10 -3 20 -3 30l-52 -55zM87 -30l-41 -44
c4 -9 7 -16 11 -24l37 39c-3 9 -5 19 -7 29zM72 770v15h-19l-41 -43v-35zM36 785h-24v-26zM85 -139c4 -5 9 -9 14 -14l21 23c-3 6 -6 12 -9 19zM124 -143l-16 -17c6 -5 12 -8 19 -12l11 12c-4 6 -8 12 -12 19zM138 -177c8 -3 15 -6 24 -7c-6 4 -11 9 -17 15zM210 869
c-1 0 -2 1 -3 2c-2 2 -2 5 0 7l60 61c2 1 5 1 7 0c2 -2 2 -6 0 -7l-60 -61c-1 -1 -3 -2 -4 -2z" />
    <glyph glyph-name="Ucircumflex" unicode="&#xdb;" horiz-adv-x="469" 
d="M389 158c0 0 5 -86 -15 -172c-25 -116 -83 -180 -166 -185v-1c-3 0 -6 3 -6 6c0 -3 -3 -6 -6 -6c-26 0 -49 5 -71 16c-10 5 -20 11 -29 19c-9 6 -16 14 -24 23c-7 9 -15 20 -21 31v0c-6 11 -12 23 -17 36c-5 11 -9 23 -12 36c-4 12 -7 26 -10 40v0c-3 13 -5 27 -7 41v0v0
c-1 15 -3 32 -4 48c-1 21 -1 40 -1 51v0v0c0 11 1 18 1 18v32v51v50v49v52v48v48v50v55v47v51v52v46c0 4 2 6 6 6h43h28c3 0 6 -2 6 -6v-22v-51v-47v-54v-51v-47v-49v-51v-50v-50v-50v-50v-52v-8v-43c1 -15 1 -30 2 -44v0c1 -16 3 -32 5 -46v0c1 -15 3 -29 6 -42
c2 -15 6 -29 9 -42c4 -14 8 -27 12 -39c4 -11 9 -21 14 -31v0c6 -10 12 -20 18 -28v0c24 -29 46 -31 46 -31c3 0 6 -3 6 -6c0 4 2 6 5 6c188 13 170 343 170 346v636c0 3 2 6 6 6c3 0 6 -3 6 -6v-636zM77 -129l27 28l2 2l-9 27l-3 -3l-31 -34c5 -7 9 -14 14 -20zM42 -62l4 4
l39 42c-2 9 -3 17 -4 27l-47 -50c2 -8 5 -16 8 -23zM74 72c0 9 -1 19 -1 28l-55 -60c1 -8 2 -17 3 -25zM72 117v34l-41 -44l-18 -19c1 -11 2 -22 3 -32zM12 240v-34l60 64v33zM12 339v-32l60 64v32zM12 591v-37l60 64v37zM12 689v-33l60 63v34zM12 638v-29l60 63v30zM12 537
v-33l60 63v34zM12 456l53 56l7 8v30l-60 -64v-30zM12 439v-31l60 64v31l-52 -56zM12 390v-34l60 64v34zM12 290v-33l60 64v32zM12 158v-2l34 37l26 28v32l-60 -64v-31zM12 138v-33l60 63v35l-26 -28zM30 -26l25 26l24 26c-2 10 -3 20 -3 30l-52 -55zM87 -30l-41 -44
c4 -9 7 -16 11 -24l37 39c-3 9 -5 19 -7 29zM72 770v15h-19l-41 -43v-35zM36 785h-24v-26zM85 -139c4 -5 9 -9 14 -14l21 23c-3 6 -6 12 -9 19zM124 -143l-16 -17c6 -5 12 -8 19 -12l11 12c-4 6 -8 12 -12 19zM138 -177c8 -3 15 -6 24 -7c-6 4 -11 9 -17 15zM149 860
c-2 -2 -6 -2 -8 0s-1 5 1 7l52 52c1 0 2 1 4 1c1 0 2 -1 3 -2l49 -51c1 -2 1 -5 -1 -7c-1 -1 -2 -2 -3 -2s-3 1 -4 2l-44 48z" />
    <glyph glyph-name="Udieresis" unicode="&#xdc;" horiz-adv-x="520" 
d="M440 158c0 0 5 -86 -15 -172c-25 -116 -83 -180 -166 -185v-1c-3 0 -6 3 -6 6c0 -3 -3 -6 -6 -6c-26 0 -49 5 -71 16c-10 5 -20 11 -29 19c-9 6 -16 14 -24 23c-7 9 -15 20 -21 31v0c-6 11 -12 23 -17 36c-5 11 -9 23 -12 36c-4 12 -7 26 -10 40v0c-3 13 -5 27 -7 41v0v0
c-1 15 -3 32 -4 48c-1 21 -1 40 -1 51v0v0c0 11 1 18 1 18v32v51v50v49v52v48v48v50v55v47v51v52v46c0 4 2 6 6 6h43h28c3 0 6 -2 6 -6v-22v-51v-47v-54v-51v-47v-49v-51v-50v-50v-50v-50v-52v-8v-43c1 -15 1 -30 2 -44v0c1 -16 3 -32 5 -46v0c1 -15 3 -29 6 -42
c2 -15 6 -29 9 -42c4 -14 8 -27 12 -39c4 -11 9 -21 14 -31v0c6 -10 12 -20 18 -28v0c24 -29 46 -31 46 -31c3 0 6 -3 6 -6c0 4 2 6 5 6c188 13 170 343 170 346v636c0 3 2 6 6 6c3 0 6 -3 6 -6v-636zM128 -129l27 28l2 2l-9 27l-3 -3l-31 -34c5 -7 9 -14 14 -20zM93 -62
l4 4l39 42c-2 9 -3 17 -4 27l-47 -50c2 -8 5 -16 8 -23zM125 72c0 9 -1 19 -1 28l-55 -60c1 -8 2 -17 3 -25zM123 117v34l-41 -44l-18 -19c1 -11 2 -22 3 -32zM63 240v-34l60 64v33zM63 339v-32l60 64v32zM63 591v-37l60 64v37zM63 689v-33l60 63v34zM63 638v-29l60 63v30z
M63 537v-33l60 63v34zM63 456l53 56l7 8v30l-60 -64v-30zM63 439v-31l60 64v31l-52 -56zM63 390v-34l60 64v34zM63 290v-33l60 64v32zM63 158v-2l34 37l26 28v32l-60 -64v-31zM63 138v-33l60 63v35l-26 -28zM81 -26l25 26l24 26c-2 10 -3 20 -3 30l-52 -55zM138 -30l-41 -44
c4 -9 7 -16 11 -24l37 39c-3 9 -5 19 -7 29zM123 770v15h-19l-41 -43v-35zM87 785h-24v-26zM136 -139c4 -5 9 -9 14 -14l21 23c-3 6 -6 12 -9 19zM175 -143l-16 -17c6 -5 12 -8 19 -12l11 12c-4 6 -8 12 -12 19zM189 -177c8 -3 15 -6 24 -7c-6 4 -11 9 -17 15zM208 845
c-7 0 -12 5 -12 12s5 13 12 13s13 -6 13 -13s-6 -12 -13 -12zM312 845c-7 0 -13 5 -13 12s6 13 13 13s13 -6 13 -13s-6 -12 -13 -12z" />
    <glyph glyph-name="Ugrave" unicode="&#xd9;" horiz-adv-x="469" 
d="M389 158c0 0 5 -86 -15 -172c-25 -116 -83 -180 -166 -185v-1c-3 0 -6 3 -6 6c0 -3 -3 -6 -6 -6c-26 0 -49 5 -71 16c-10 5 -20 11 -29 19c-9 6 -16 14 -24 23c-7 9 -15 20 -21 31v0c-6 11 -12 23 -17 36c-5 11 -9 23 -12 36c-4 12 -7 26 -10 40v0c-3 13 -5 27 -7 41v0v0
c-1 15 -3 32 -4 48c-1 21 -1 40 -1 51v0v0c0 11 1 18 1 18v32v51v50v49v52v48v48v50v55v47v51v52v46c0 4 2 6 6 6h43h28c3 0 6 -2 6 -6v-22v-51v-47v-54v-51v-47v-49v-51v-50v-50v-50v-50v-52v-8v-43c1 -15 1 -30 2 -44v0c1 -16 3 -32 5 -46v0c1 -15 3 -29 6 -42
c2 -15 6 -29 9 -42c4 -14 8 -27 12 -39c4 -11 9 -21 14 -31v0c6 -10 12 -20 18 -28v0c24 -29 46 -31 46 -31c3 0 6 -3 6 -6c0 4 2 6 5 6c188 13 170 343 170 346v636c0 3 2 6 6 6c3 0 6 -3 6 -6v-636zM77 -129l27 28l2 2l-9 27l-3 -3l-31 -34c5 -7 9 -14 14 -20zM42 -62l4 4
l39 42c-2 9 -3 17 -4 27l-47 -50c2 -8 5 -16 8 -23zM74 72c0 9 -1 19 -1 28l-55 -60c1 -8 2 -17 3 -25zM72 117v34l-41 -44l-18 -19c1 -11 2 -22 3 -32zM12 240v-34l60 64v33zM12 339v-32l60 64v32zM12 591v-37l60 64v37zM12 689v-33l60 63v34zM12 638v-29l60 63v30zM12 537
v-33l60 63v34zM12 456l53 56l7 8v30l-60 -64v-30zM12 439v-31l60 64v31l-52 -56zM12 390v-34l60 64v34zM12 290v-33l60 64v32zM12 158v-2l34 37l26 28v32l-60 -64v-31zM12 138v-33l60 63v35l-26 -28zM30 -26l25 26l24 26c-2 10 -3 20 -3 30l-52 -55zM87 -30l-41 -44
c4 -9 7 -16 11 -24l37 39c-3 9 -5 19 -7 29zM72 770v15h-19l-41 -43v-35zM36 785h-24v-26zM85 -139c4 -5 9 -9 14 -14l21 23c-3 6 -6 12 -9 19zM124 -143l-16 -17c6 -5 12 -8 19 -12l11 12c-4 6 -8 12 -12 19zM138 -177c8 -3 15 -6 24 -7c-6 4 -11 9 -17 15zM203 841l-61 61
c-2 1 -2 5 0 7c2 1 5 1 7 0l61 -61c2 -2 2 -5 0 -7c-1 -1 -3 -2 -4 -2s-2 1 -3 2z" />
    <glyph glyph-name="ccedilla" unicode="&#xe7;" 
 />
    <glyph glyph-name="udieresis" unicode="&#xfc;" 
 />
  </font>
</defs>
</svg>
